<svg xmlns="http://www.w3.org/2000/svg" width="900" height="540" viewBox="0 0 900 540">
  <g fill="#1D1C1B" fill-rule="evenodd" transform="translate(381 89)">
    <path d="M86.1139127,0 L19.7329833,5.053918 L19.2237263,5.49453095 L10.4237644,42.3747097 L11.0203226,43.0808576 L77.398342,38.0240216 L77.9075991,37.5892446 L86.707561,0.70322993 L86.1139127,0 Z M20.2364203,6.16274528 L85.4184131,1.19928424 L76.8978151,36.9151944 L11.7158223,41.8786554 L20.2364203,6.16274528 Z"/>
    <path d="M85.6005816,0.438570367 L76.8006197,37.3216671 L76.8733708,37.7622801 L119.39197,104.750037 L120.425034,104.577877 L129.224996,67.6889446 L129.152245,67.2512496 L86.6336459,0.266410343 L85.6005816,0.438570367 Z M77.9646359,37.3508468 L86.3979327,2.01719025 L128.06389,67.659765 L119.633503,102.999257 L77.9646359,37.3508468 Z"/>
    <path d="M53.5377575,110.068323 L53.0139503,109.805706 L10.4982614,42.8179488 L10.9347675,41.9396409 L77.3127868,36.8857229 L77.8365941,37.1483399 L120.352283,104.136097 L119.915777,105.014405 L53.5377575,110.068323 Z M11.9678318,43.0076167 L53.7938411,108.901136 L118.882713,103.943511 L77.0567033,38.0499916 L11.9678318,43.0076167 Z"/>
    <path d="M24.9594157,46.4700757 L24.4501587,46.9077707 L0,149.369247 L0.596558263,150.072477 L15.9237406,148.90529 L16.4359076,148.467595 L40.8831563,46.006119 L40.286598,45.3028891 L24.9594157,46.4700757 Z M25.4599426,47.578903 L39.5910984,46.5050913 L15.4232136,147.799381 L1.2920579,148.873193 L25.4599426,47.578903 Z"/>
    <path d="M57.9176592,215.628972 L15.3990603,148.641214 L15.3263093,148.203519 L39.7735579,45.7420431 L40.8095322,45.5669651 L83.3281312,112.554722 L83.4008822,112.995335 L58.9536336,215.453894 L57.9176592,215.628972 Z M16.4903254,148.232699 L58.1591925,213.878192 L82.236866,112.963238 L40.5679989,47.317745 L16.4903254,148.232699 Z"/>
    <path d="M.51333111 148.930093L.0739150238 149.808401 42.5896039 216.796158 43.1134112 217.061693 58.4405934 215.891588 58.8770995 215.016199 16.3614106 148.028441 15.8405134 147.762906.51333111 148.930093zM1.54639542 149.998069L15.5844299 148.930093 57.4075291 214.823613 43.3724047 215.891588 1.54639542 149.998069zM38.2999135 65.3461093L37.7033552 64.6428794 42.5922229 44.1558365 43.10148 43.7181415 109.459129 38.6671415 110.055687 39.3703714 105.16973 59.8544963 104.657563 60.2921913 38.2999135 65.3461093zM43.604917 44.8269688L38.9954131 64.1468251 104.157036 59.183364 108.766539 39.8664257 43.604917 44.8269688z"/>
    <path d="M146.651481,127.016456 L104.132882,60.0286989 L104.060131,59.588086 L108.948999,39.1039611 L109.984973,38.9288831 L152.500662,105.91664 L152.573413,106.357253 L147.687456,126.841378 L146.651481,127.016456 Z M105.224147,59.6201836 L146.893015,125.265676 L151.409397,106.325156 L109.74344,40.6825809 L105.224147,59.6201836 Z"/>
    <path d="M80.8176394,132.332699 L80.2938321,132.070082 L37.7781433,65.0823251 L38.2146493,64.2040172 L104.572298,59.1500992 L105.096106,59.4156342 L147.614705,126.403391 L147.175288,127.278781 L80.8176394,132.332699 Z M39.2477136,65.2749109 L81.0737229,131.165513 L146.142224,126.210806 L104.316215,60.3172858 L39.2477136,65.2749109 Z"/>
    <path d="M82.7170227,93.0807974 L82.1204644,92.3775675 L102.223023,8.12420237 L102.73519,7.68650739 L119.590143,6.40552009 L120.186702,7.10875002 L100.084143,91.3591972 L99.5719761,91.7968922 L82.7170227,93.0807974 Z M103.235717,8.79533467 L83.4125223,91.8815132 L99.0714492,90.6880649 L118.894644,7.60480433 L103.235717,8.79533467 Z"/>
    <path d="M119.077103,6.84117249 L98.9745449,91.0945376 L99.0472959,91.5322326 L141.565895,158.51999 L142.601869,158.344912 L162.704428,74.0944647 L162.631677,73.6538518 L120.113078,6.66901247 L119.077103,6.84117249 Z M100.138561,91.1237173 L119.874454,8.41979238 L161.540411,74.0623671 L141.804518,156.76921 L100.138561,91.1237173 Z"/>
    <path d="M125.234458 160.067679L124.71065 159.805062 82.1949615 92.8173051 82.6314675 91.9389971 99.486421 90.6550919 100.010228 90.9206268 142.528827 157.905466 142.089411 158.783774 125.234458 160.067679zM83.6645318 93.0098908L125.490541 158.900493 141.056347 157.715798 99.2303374 91.8222785 83.6645318 93.0098908zM58.844216 206.799205L58.0817855 206.749599 45.2979784 193.496196 45.3532692 192.652903 102.256197 147.211411 103.021538 147.261016 115.822805 160.511502 115.767514 161.354794 58.844216 206.799205zM46.5522058 193.154793L58.5386618 205.582413 114.565668 160.852904 102.561752 148.428203 46.5522058 193.154793z"/>
    <path d="M101.361651,273.785795 L100.526469,273.645733 L58.0078705,206.657975 L58.1359122,205.90514 L115.059211,160.460729 L115.894392,160.600792 L158.410081,227.588549 L158.284949,228.344302 L101.361651,273.785795 Z M59.2475476,206.479979 L101.146308,272.496054 L157.173314,227.769463 L115.271644,161.750471 L59.2475476,206.479979 Z"/>
    <path d="M100.597765,273.735606 L87.8168683,260.48512 L45.2255184,193.406906 L46.1159907,192.703676 L58.9696388,206.044619 L101.488238,273.032376 L100.597765,273.735606 Z M49.2064535,197.550418 L88.7073407,259.78189 L97.5160327,268.900535 L58.0413359,206.706997 L49.2064535,197.550418 Z"/>
  </g>
</svg>
