<svg xmlns="http://www.w3.org/2000/svg" viewBox="0 0 151 233"><g fill-rule="evenodd"><path d="M28.15 49.786h15.615l-7.802-15.732M83.007 0L75.61 17.149h2.804l1.245-2.707h6.718l1.13 2.707h2.918L83.007 0zm0 6.664l2.148 5.186h-4.388l2.24-5.186zm38.212 18.354v17.057h-2.692v-2.683l-6.785-9.78v12.463h-2.692V25.018h2.692l6.785 9.757v-9.757m17.242 16.77h2.804l1.245-2.707h6.718l1.13 2.706h2.918l-7.419-17.148-7.396 17.148zm7.396-10.485l2.15 5.185h-4.39l2.24-5.185zM137.51 58.23l4.728 8.46h-3.031l-3.258-5.777-3.144 5.777h-2.691V49.656h2.691v11.622l1.674-3.047 1.131-2.138 3.71-6.437h3.031M118.05 84.128h2.579V67.093h-2.579m-11.256 0v9.757l-6.786-9.757h-2.692v17.058h2.692V71.687l6.786 9.78v2.684h2.691V67.093m-34.406-5.168l-30.642 62.144h19.715l20.772-42.132-9.845-20.012zm-.002 3.92l7.917 16.092-19.905 40.37H47.237l27.84-56.462z"/><path d="M75.01 73.025l-22.882 46.333h9.34l18.188-36.892-4.645-9.441zm-.001 3.92l2.716 5.52-17.276 34.987h-5.342l19.902-40.507zm-31.61 55.414l74.133 100.538 16.335-32.06-50.262-68.158-40.206-.32zm6.277 3.202l32.33.258 48.16 65.31-13.134 25.777-67.356-91.345zm40.246-36.437l41.46 55.515 8.95-17.566-28.11-37.636-22.3-.313zm3.492 1.781l17.932.252 26.934 36.064-7.196 14.123-37.67-50.439z"/><path d="M99.78 104.224l30.896 41.424 4.24-8.322-24.614-32.954-10.521-.148zm3.493 1.782l6.15.086 23.332 31.276-2.425 4.76-27.057-36.122zm14.043-7.319l22.693 30.386 4.899-9.615-15.386-20.6-12.206-.171zm1.911.975l9.815.138 14.742 19.739-3.938 7.73-20.619-27.607z"/><path d="M122.712 101.478l16.91 22.673 2.321-4.554-13.472-18.038-5.759-.08zm1.912.975l3.366.047 12.77 17.12-1.327 2.605-14.81-19.772zm-81.95-26.848l-16.453 33.277h10.586l11.154-22.56-5.287-10.717zm0 2.1l4.25 8.616-10.688 21.618h-8.511l14.948-30.235z"/><path d="M42.637 81.549l-12.286 24.81h5.015l9.765-19.755-2.494-5.055zm0 2.099l1.458 2.956-9.276 18.735H31.95l10.686-21.691zM19.6 83.85l-8.001 16.238h5.147l5.424-11.01-2.57-5.228zm-.001 1.024l2.067 4.205-5.197 10.548H12.33l7.27-14.753z"/><path d="M19.581 86.75l-5.974 12.107h2.438l4.749-9.64-1.213-2.467zm0 1.025l.709 1.442-4.51 9.142h-1.395l5.196-10.584zm115.685 10.78l10.263 13.742 2.216-4.348-6.959-9.317-5.52-.077zm.865.44l4.438.063 6.668 8.927-1.782 3.496-9.324-12.485z"/><path d="M137.707 99.817l7.647 10.254 1.05-2.06-6.093-8.157-2.604-.037zm.864.441l1.523.021 5.775 7.742-.6 1.179-6.698-8.942zm5.968-1.832l4.122 5.52.89-1.747-2.795-3.742-2.217-.031zm.347.177l1.783.025 2.678 3.586-.715 1.404-3.746-5.015z"/><path d="M145.52 98.933l3.071 4.119.422-.828-2.448-3.276-1.046-.015zm.346.177l.612.009 2.32 3.11-.241.473-2.69-3.592zM3.774 87.67L0 95.288h2.428l2.558-5.165-1.212-2.453zm0 .48l.974 1.973-2.451 4.949H.345l3.428-6.921z"/><path d="M3.765 89.03L.947 94.71h1.15l2.24-4.522-.572-1.157zm0 .481l.334.677-2.127 4.289h-.658l2.451-4.966z"/></g></svg>