<?xml version="1.0" encoding="utf-8"?>
<!-- Generator: Adobe Illustrator 22.0.1, SVG Export Plug-In . SVG Version: 6.00 Build 0)  -->
<svg version="1.1" id="Ebene_1" xmlns="http://www.w3.org/2000/svg" xmlns:xlink="http://www.w3.org/1999/xlink" x="0px" y="0px"
	 width="330px" height="135px" viewBox="0 0 330 135" enable-background="new 0 0 330 135" xml:space="preserve">
<g>
	<path d="M31.7,79.9l2.3-3.4c1.2,1.2,3.1,2.2,5.4,2.2c1.5,0,2.4-0.5,2.4-1.3c0-2.2-9.5-0.4-9.5-6.8c0-2.8,2.4-5.3,6.6-5.3
		c2.7,0,5,0.8,6.8,2.3l-2.4,3.2c-1.4-1.2-3.2-1.8-4.9-1.8c-1.3,0-1.8,0.4-1.8,1.2c0,2.1,9.5,0.5,9.5,6.7c0,3.4-2.5,5.6-7,5.6
		C35.7,82.5,33.3,81.5,31.7,79.9z M41.3,108.6V91.9H37v16.7H41.3z M8.3,73.3H6.2l-0.6-1.1H2.7l-0.6,1.1H0l4.1-7.7L8.3,73.3z
		 M4.8,70.7l-0.7-1.4l-0.7,1.4H4.8z M14.7,65.6v3.9l-5.1-3.9v7.7h1.8v-3.8l5.1,3.8v-7.7H14.7z M16.4,78.4c0,2.1-1.7,3.9-3.9,3.9H9.7
		H9.6v-7.7h0h2.9C14.6,74.6,16.4,76.3,16.4,78.4z M14.6,78.4c0-0.6-0.2-1.1-0.6-1.5c-0.4-0.4-0.9-0.6-1.5-0.6h-1.1v4.2h1.1
		c0.6,0,1.1-0.2,1.5-0.6C14.4,79.5,14.6,79,14.6,78.4z M54.4,111.6h-1v3.7h1V111.6z M77.3,82.3V65.6H73v6.2H66v-6.2h-4.3v16.7H66
		v-6.7H73v6.7H77.3z M77.3,108.6V91.9h-4.3v9.2l-6.8-9.2h-4.4v16.7H66V99l7.1,9.7H77.3z M75.6,135v-3.8h-7.9v-2.8h7.8v-3.8h-7.8V122
		h7.9v-3.8H63.4V135H75.6z M54.4,85.3h-1v3.7h1V85.3z M24.7,85.3h-1v3.7h1V85.3z"/>
</g>
</svg>
