<svg xmlns="http://www.w3.org/2000/svg" width="1440" height="1440" viewBox="0 0 1440 1440" xmlns:xlink="http://www.w3.org/1999/xlink" style="background:#fff">
  <defs>
    <filter id="b" width="200%" height="200%" x="-50%" y="-50%" filterUnits="objectBoundingBox">
      <feGaussianBlur stdDeviation="38.652" in="SourceGraphic"/>
    </filter>
    <filter id="c" width="200%" height="200%" x="-50%" y="-50%" filterUnits="objectBoundingBox">
      <feGaussianBlur stdDeviation="30.315" in="SourceGraphic"/>
    </filter>
    <linearGradient id="d" x1="113.845%" x2="-9.322%" y1="74.558%" y2="83.417%">
      <stop stop-color="#030A1C" offset="0%"/>
      <stop stop-color="#154D80" offset="44.643%"/>
      <stop stop-color="#04253E" offset="100%"/>
    </linearGradient>
    <polygon id="a" points="365.487 692.158 430.785 455.455 604.999 629.876"/>
    <mask id="e" width="239.513" height="236.703" x="0" y="0" fill="white">
      <use xlink:href="#a"/>
    </mask>
    <filter id="f" width="200%" height="200%" x="-50%" y="-50%" filterUnits="objectBoundingBox">
      <feGaussianBlur stdDeviation="31.671317 0" in="SourceGraphic"/>
    </filter>
    <linearGradient id="g" x1="-2.242%" y1="50%" y2="35.882%">
      <stop stop-color="#00CEFF" offset="0%"/>
      <stop stop-color="#90FEFE" stop-opacity="0" offset="100%"/>
    </linearGradient>
    <linearGradient id="h" x1="50%" x2="50%" y1="0%" y2="99.055%">
      <stop stop-color="#00CEFF" offset="0%"/>
      <stop stop-color="#90FEFE" offset="100%"/>
    </linearGradient>
    <linearGradient id="i" x1="91.279%" x2="50%" y1="-24.062%" y2="88.429%">
      <stop stop-color="#00132B" offset="0%"/>
      <stop stop-color="#004B77" offset="100%"/>
    </linearGradient>
    <linearGradient id="j" x1="105.031%" x2="-4.026%" y1="-5.149%" y2="106.481%">
      <stop stop-color="#000000" offset="0%"/>
      <stop stop-color="#0072A0" offset="3.61%"/>
      <stop stop-color="#0176A4" offset="39.334%"/>
      <stop stop-color="#21B5FF" offset="100%"/>
    </linearGradient>
    <linearGradient id="k" x1="0%" x2="0%" y1="-8.012%" y2="111.223%">
      <stop stop-color="#008DFF" offset="0%"/>
      <stop stop-color="#3FFFFF" offset="100%"/>
    </linearGradient>
    <linearGradient id="l" x1="49.527%" x2="18.532%" y1="1.049%" y2="50%">
      <stop stop-color="#008DFF" offset="0%"/>
      <stop stop-color="#3FFFFF" offset="100%"/>
    </linearGradient>
    <linearGradient id="m" x1="50%" x2="50%" y1="0%" y2="97.676%">
      <stop stop-color="#30E4FF" offset="0%"/>
      <stop stop-color="#057CAD" offset="100%"/>
    </linearGradient>
  </defs>
  <g fill="none" fill-rule="evenodd" transform="translate(310 229)">
    <g fill="#000000" transform="translate(92.819 508.5)">
      <polygon points="81.236 62.748 12.849 171.148 474.994 445.831 597.714 292.786" opacity=".3" filter="url(#b)"/>
      <polygon points="72.19 10.196 6.285 111.427 451.662 367.944 569.929 225.021" opacity=".628" filter="url(#c)" transform="rotate(-2 288.107 189.07)"/>
    </g>
    <polygon fill="url(#d)" points="161.314 187.468 795.313 139.548 865.892 399.091 376.148 887.658" transform="rotate(-45 513.603 513.603)"/>
    <polyline stroke="#01FFFF" points="680.018 691.427 585.789 699.262 634.656 587.729 680.018 647.716" opacity=".2"/>
    <use stroke="#3FFFFF" stroke-width="2" mask="url(#e)" stroke-linecap="square" opacity=".2" transform="rotate(95 485.243 573.807)" xlink:href="#a"/>
    <polygon fill="#000000" points="188.617 457.103 180.392 560.218 474.368 352.204 453.622 254.101" opacity=".644" filter="url(#f)"/>
    <polygon fill="url(#g)" fill-opacity=".88" points="355.52 631.253 598.769 615.121 728.803 714.71 384.339 875.487" style="mix-blend-mode:hard-light" opacity=".2" transform="rotate(53 542.162 745.304)"/>
    <polygon fill="url(#h)" points="465.528 434 490.059 434 490.059 466.905 465.693 490.141 465.528 490.141"/>
    <path fill="#FFFFFF" d="M487.559684,312.804693 L487.559684,307.512693 C487.559684,300.384693 483.455684,296.496693 476.255684,296.496693 C473.699684,296.496693 470.243684,296.748693 469.163684,296.928693 C468.551684,297.036693 468.227684,297.324693 468.227684,298.044693 L468.227684,322.272693 C468.227684,322.992693 468.551684,323.280693 469.163684,323.388693 C470.243684,323.568693 473.699684,323.820693 476.255684,323.820693 C483.455684,323.820693 487.559684,319.932693 487.559684,312.804693 Z M482.591684,312.804693 C482.591684,318.204693 479.855684,319.608693 476.255684,319.608693 C474.923684,319.608693 473.987684,319.536693 473.231684,319.500693 L473.231684,300.816693 C473.987684,300.780693 474.923684,300.708693 476.255684,300.708693 C479.855684,300.708693 482.591684,302.112693 482.591684,307.512693 L482.591684,312.804693 Z M514.859684,313.632693 L514.859684,297.468693 C514.859684,297.072693 514.535684,296.784693 514.139684,296.784693 L510.575684,296.784693 C510.179684,296.784693 509.855684,297.072693 509.855684,297.468693 L509.855684,313.632693 C509.855684,317.736693 508.847684,319.680693 504.959684,319.680693 C501.071684,319.680693 500.063684,317.736693 500.063684,313.632693 L500.063684,297.468693 C500.063684,297.072693 499.739684,296.784693 499.343684,296.784693 L495.779684,296.784693 C495.383684,296.784693 495.059684,297.072693 495.059684,297.468693 L495.059684,313.632693 C495.059684,321.300693 499.163684,323.820693 504.959684,323.820693 C510.755684,323.820693 514.859684,321.300693 514.859684,313.632693 Z M541.979684,316.044693 L541.979684,315.432693 C541.979684,312.732693 540.683684,310.896693 538.487684,309.960693 C540.683684,309.024693 541.799684,306.900693 541.799684,304.524693 L541.799684,303.804693 C541.799684,298.368693 537.227684,296.496693 530.711684,296.496693 C527.903684,296.496693 525.635684,296.712693 524.699684,296.856693 C523.547684,297.036693 523.079684,297.504693 523.079684,298.800693 L523.079684,321.480693 C523.079684,322.812693 523.619684,323.208693 524.807684,323.424693 C525.923684,323.640693 528.119684,323.820693 531.035684,323.820693 C537.731684,323.820693 541.979684,321.768693 541.979684,316.044693 Z M536.939684,304.596693 C536.939684,306.432693 536.003684,308.016693 532.655684,308.016693 L528.083684,308.016693 L528.083684,300.708693 C528.839684,300.672693 529.847684,300.636693 530.711684,300.636693 C535.319684,300.636693 536.939684,301.572693 536.939684,304.092693 L536.939684,304.596693 Z M537.083684,315.972693 C537.083684,318.492693 535.643684,319.680693 531.035684,319.680693 C530.279684,319.680693 528.947684,319.608693 528.083684,319.608693 L528.083684,311.688693 L532.655684,311.688693 C536.039684,311.688693 537.083684,313.524693 537.083684,315.504693 L537.083684,315.972693 Z M569.351684,322.920693 C569.351684,322.884693 569.315684,322.812693 569.315684,322.740693 L563.411684,300.168693 C562.547684,296.820693 559.955684,296.496693 558.407684,296.496693 C556.859684,296.496693 554.267684,296.820693 553.403684,300.168693 L547.499684,322.740693 C547.499684,322.812693 547.463684,322.884693 547.463684,322.920693 C547.463684,323.280693 547.751684,323.532693 548.111684,323.532693 L551.927684,323.532693 C552.251684,323.532693 552.539684,323.244693 552.611684,322.920693 L554.267684,316.080693 L562.547684,316.080693 L564.203684,322.920693 C564.275684,323.244693 564.563684,323.532693 564.887684,323.532693 L568.703684,323.532693 C569.063684,323.532693 569.351684,323.280693 569.351684,322.920693 Z M561.575684,311.976693 L555.239684,311.976693 L557.831684,301.284693 C557.939684,300.852693 558.047684,300.708693 558.407684,300.708693 C558.767684,300.708693 558.875684,300.852693 558.983684,301.284693 L561.575684,311.976693 Z M580.739684,322.812693 L580.739684,297.468693 C580.739684,297.072693 580.415684,296.784693 580.019684,296.784693 L576.455684,296.784693 C576.059684,296.784693 575.735684,297.072693 575.735684,297.468693 L575.735684,322.812693 C575.735684,323.208693 576.059684,323.532693 576.455684,323.532693 L580.019684,323.532693 C580.415684,323.532693 580.739684,323.208693 580.739684,322.812693 Z M484.103684,339.060693 L484.103684,336.756693 C484.103684,336.252693 483.923684,336.072693 483.383684,336.000693 C482.231684,335.820693 480.827684,335.496693 476.543684,335.496693 C471.863684,335.496693 468.227684,336.756693 468.227684,342.876693 L468.227684,361.812693 C468.227684,362.208693 468.551684,362.532693 468.947684,362.532693 L472.475684,362.532693 C472.871684,362.532693 473.195684,362.208693 473.195684,361.812693 L473.195684,350.796693 L482.951684,350.796693 C483.347684,350.796693 483.671684,350.472693 483.671684,350.076693 L483.671684,347.484693 C483.671684,347.088693 483.347684,346.764693 482.951684,346.764693 L473.195684,346.764693 L473.195684,342.876693 C473.195684,340.500693 473.951684,339.780693 476.039684,339.780693 L483.383684,339.780693 C483.779684,339.780693 484.103684,339.456693 484.103684,339.060693 Z M511.583684,352.632693 L511.583684,336.468693 C511.583684,336.072693 511.259684,335.784693 510.863684,335.784693 L507.299684,335.784693 C506.903684,335.784693 506.579684,336.072693 506.579684,336.468693 L506.579684,352.632693 C506.579684,356.736693 505.571684,358.680693 501.683684,358.680693 C497.795684,358.680693 496.787684,356.736693 496.787684,352.632693 L496.787684,336.468693 C496.787684,336.072693 496.463684,335.784693 496.067684,335.784693 L492.503684,335.784693 C492.107684,335.784693 491.783684,336.072693 491.783684,336.468693 L491.783684,352.632693 C491.783684,360.300693 495.887684,362.820693 501.683684,362.820693 C507.479684,362.820693 511.583684,360.300693 511.583684,352.632693 Z M537.047684,339.312693 L537.047684,336.468693 C537.047684,336.072693 536.723684,335.784693 536.327684,335.784693 L518.723684,335.784693 C518.327684,335.784693 518.003684,336.072693 518.003684,336.468693 L518.003684,339.312693 C518.003684,339.708693 518.327684,339.960693 518.723684,339.960693 L525.023684,339.960693 L525.023684,361.812693 C525.023684,362.208693 525.347684,362.532693 525.743684,362.532693 L529.307684,362.532693 C529.703684,362.532693 530.027684,362.208693 530.027684,361.812693 L530.027684,339.960693 L536.327684,339.960693 C536.723684,339.960693 537.047684,339.708693 537.047684,339.312693 Z M563.267684,352.632693 L563.267684,336.468693 C563.267684,336.072693 562.943684,335.784693 562.547684,335.784693 L558.983684,335.784693 C558.587684,335.784693 558.263684,336.072693 558.263684,336.468693 L558.263684,352.632693 C558.263684,356.736693 557.255684,358.680693 553.367684,358.680693 C549.479684,358.680693 548.471684,356.736693 548.471684,352.632693 L548.471684,336.468693 C548.471684,336.072693 548.147684,335.784693 547.751684,335.784693 L544.187684,335.784693 C543.791684,335.784693 543.467684,336.072693 543.467684,336.468693 L543.467684,352.632693 C543.467684,360.300693 547.571684,362.820693 553.367684,362.820693 C559.163684,362.820693 563.267684,360.300693 563.267684,352.632693 Z M590.927684,362.100693 C590.927684,362.028693 590.927684,361.920693 590.855684,361.812693 L585.203684,351.300693 C588.155684,350.148693 590.063684,347.772693 590.063684,343.956693 L590.063684,343.632693 C590.063684,337.476693 585.239684,335.496693 579.695684,335.496693 C577.067684,335.496693 574.511684,335.676693 572.639684,335.964693 C571.919684,336.072693 571.487684,336.324693 571.487684,337.044693 L571.487684,361.812693 C571.487684,362.208693 571.811684,362.532693 572.207684,362.532693 L575.807684,362.532693 C576.203684,362.532693 576.491684,362.208693 576.491684,361.812693 L576.491684,352.056693 C577.319684,352.092693 578.759684,352.200693 579.695684,352.200693 L580.199684,352.200693 L585.383684,361.812693 C585.563684,362.172693 585.707684,362.532693 586.103684,362.532693 L590.495684,362.532693 C590.783684,362.532693 590.927684,362.352693 590.927684,362.100693 Z M585.095684,343.956693 C585.095684,347.124693 583.403684,348.132693 579.695684,348.132693 C579.083684,348.132693 577.067684,348.060693 576.491684,348.024693 L576.491684,339.924693 C577.139684,339.852693 578.939684,339.780693 579.695684,339.780693 C583.295684,339.780693 585.095684,340.932693 585.095684,343.632693 L585.095684,343.956693 Z M613.871684,361.560693 L613.871684,359.256693 C613.871684,358.860693 613.547684,358.536693 613.151684,358.536693 L605.807684,358.536693 C603.719684,358.536693 602.963684,357.816693 602.963684,355.440693 L602.963684,350.796693 L612.719684,350.796693 C613.115684,350.796693 613.439684,350.472693 613.439684,350.076693 L613.439684,347.484693 C613.439684,347.088693 613.115684,346.764693 612.719684,346.764693 L602.963684,346.764693 L602.963684,342.876693 C602.963684,340.500693 603.719684,339.780693 605.807684,339.780693 L613.151684,339.780693 C613.547684,339.780693 613.871684,339.456693 613.871684,339.060693 L613.871684,336.756693 C613.871684,336.252693 613.691684,336.072693 613.151684,336.000693 C611.999684,335.820693 610.595684,335.496693 606.311684,335.496693 C601.631684,335.496693 597.995684,336.756693 597.995684,342.876693 L597.995684,355.440693 C597.995684,361.560693 601.631684,362.820693 606.311684,362.820693 C610.595684,362.820693 611.999684,362.496693 613.151684,362.316693 C613.691684,362.244693 613.871684,362.064693 613.871684,361.560693 Z M485.471684,378.312693 L485.471684,375.468693 C485.471684,375.072693 485.147684,374.784693 484.751684,374.784693 L467.147684,374.784693 C466.751684,374.784693 466.427684,375.072693 466.427684,375.468693 L466.427684,378.312693 C466.427684,378.708693 466.751684,378.960693 467.147684,378.960693 L473.447684,378.960693 L473.447684,400.812693 C473.447684,401.208693 473.771684,401.532693 474.167684,401.532693 L477.731684,401.532693 C478.127684,401.532693 478.451684,401.208693 478.451684,400.812693 L478.451684,378.960693 L484.751684,378.960693 C485.147684,378.960693 485.471684,378.708693 485.471684,378.312693 Z M511.943684,400.920693 C511.943684,400.884693 511.907684,400.812693 511.907684,400.740693 L506.003684,378.168693 C505.139684,374.820693 502.547684,374.496693 500.999684,374.496693 C499.451684,374.496693 496.859684,374.820693 495.995684,378.168693 L490.091684,400.740693 C490.091684,400.812693 490.055684,400.884693 490.055684,400.920693 C490.055684,401.280693 490.343684,401.532693 490.703684,401.532693 L494.519684,401.532693 C494.843684,401.532693 495.131684,401.244693 495.203684,400.920693 L496.859684,394.080693 L505.139684,394.080693 L506.795684,400.920693 C506.867684,401.244693 507.155684,401.532693 507.479684,401.532693 L511.295684,401.532693 C511.655684,401.532693 511.943684,401.280693 511.943684,400.920693 Z M504.167684,389.976693 L497.831684,389.976693 L500.423684,379.284693 C500.531684,378.852693 500.639684,378.708693 500.999684,378.708693 C501.359684,378.708693 501.467684,378.852693 501.575684,379.284693 L504.167684,389.976693 Z M533.483684,400.560693 L533.483684,398.256693 C533.483684,397.860693 533.159684,397.536693 532.763684,397.536693 L526.139684,397.536693 C524.051684,397.536693 523.331684,396.816693 523.331684,394.440693 L523.331684,375.504693 C523.331684,375.108693 523.007684,374.784693 522.611684,374.784693 L519.047684,374.784693 C518.651684,374.784693 518.327684,375.108693 518.327684,375.504693 L518.327684,394.440693 C518.327684,400.560693 521.963684,401.820693 526.643684,401.820693 C528.551684,401.820693 531.683684,401.568693 532.763684,401.316693 C533.303684,401.208693 533.483684,401.064693 533.483684,400.560693 Z M559.343684,401.208693 C559.343684,401.100693 559.271684,400.956693 559.163684,400.776693 L549.875684,387.744693 L559.091684,375.828693 C559.235684,375.648693 559.343684,375.432693 559.343684,375.252693 C559.343684,375.000693 559.127684,374.820693 558.659684,374.820693 L554.555684,374.820693 C554.159684,374.820693 553.907684,374.856693 553.727684,375.108693 L544.907684,386.952693 L544.907684,375.504693 C544.907684,375.108693 544.583684,374.820693 544.187684,374.820693 L540.623684,374.820693 C540.227684,374.820693 539.903684,375.108693 539.903684,375.504693 L539.903684,400.812693 C539.903684,401.208693 540.227684,401.532693 540.623684,401.532693 L544.187684,401.532693 C544.583684,401.532693 544.907684,401.208693 544.907684,400.812693 L544.907684,388.860693 L553.151684,401.136693 C553.331684,401.424693 553.547684,401.532693 553.979684,401.532693 L558.803684,401.532693 C559.163684,401.532693 559.343684,401.424693 559.343684,401.208693 Z M582.251684,394.296693 C582.251684,391.452693 581.207684,389.148693 577.247684,386.952693 L572.927684,384.540693 C570.587684,383.244693 569.975684,382.524693 569.975684,381.336693 C569.975684,379.716693 571.091684,378.780693 573.755684,378.780693 C576.095684,378.780693 578.471684,378.924693 580.847684,379.140693 L580.919684,379.140693 C581.279684,379.140693 581.531684,378.852693 581.531684,378.492693 L581.531684,375.828693 C581.531684,375.468693 581.243684,375.216693 580.883684,375.144693 C579.659684,374.856693 576.347684,374.496693 573.971684,374.496693 C567.275684,374.496693 564.971684,377.376693 564.971684,381.336693 C564.971684,383.856693 565.871684,385.944693 569.219684,387.924693 L573.971684,390.768693 C576.347684,392.172693 577.031684,392.892693 577.031684,394.296693 C577.031684,396.384693 576.059684,397.536693 572.855684,397.536693 C571.523684,397.536693 567.923684,397.356693 566.483684,397.176693 L566.411684,397.176693 C566.051684,397.176693 565.727684,397.464693 565.727684,397.860693 L565.727684,400.452693 C565.727684,400.848693 566.051684,401.100693 566.411684,401.172693 C568.139684,401.568693 570.083684,401.820693 572.783684,401.820693 C579.983684,401.820693 582.251684,397.932693 582.251684,394.296693 Z"/>
    <g transform="translate(167.754 174.573)">
      <polygon fill="url(#i)" points="1 36.848 1 290.583 67.63 258.394 284.159 86.728 308.995 18.27"/>
      <polygon fill="url(#j)" points="1 290.585 308.995 18.272 1 4.039"/>
      <polygon fill="url(#k)" points="1.001 4.064 1.001 290.585 290.913 .788"/>
      <polygon fill="url(#l)" points="1.001 4.064 30.225 217.339 290.913 .788"/>
      <polygon fill="#AFFEFE" points="0 70.007 30.224 217.336 59.449 145.508 0 3.064"/>
      <polygon fill="url(#j)" points="59.449 145.507 30.225 217.339 290.913 .788"/>
    </g>
    <polygon fill="url(#m)" points="32.975 531.477 90.901 624.035 649.976 875.144 680.745 875.144"/>
  </g>
</svg>
