<?xml version="1.0" encoding="iso-8859-1"?>
<!-- Generator: Adobe Illustrator 19.0.0, SVG Export Plug-In . SVG Version: 6.00 Build 0)  -->
<svg version="1.1" id="Layer_1" xmlns="http://www.w3.org/2000/svg" xmlns:xlink="http://www.w3.org/1999/xlink" x="0px" y="0px"
	 viewBox="0 0 482.177 482.177" style="enable-background:new 0 0 482.177 482.177;" xml:space="preserve">
<g>
	<g>
		<path d="M280.939,238.539h-1.451c-31.784,0.062-62.36-12.169-85.333-34.133h-85.333C49.911,203.228,1.2,250.029,0.022,308.939
			s45.623,107.622,104.533,108.8c4.713,0,8.533,3.82,8.533,8.533v47.787l53.675-53.675c1.582-1.66,3.766-2.613,6.059-2.645h29.867
			c58.957-0.085,106.683-47.948,106.598-106.906C309.248,284.031,299.129,258.224,280.939,238.539z"/>
	</g>
</g>
<g>
	<g>
		<path d="M482.155,112.673c-1.178-58.91-49.89-105.712-108.8-104.533h-93.867c-58.91,0-106.667,47.756-106.667,106.667
			s47.756,106.667,106.667,106.667h29.867c2.268-0.013,4.448,0.877,6.059,2.475l53.675,53.76v-47.701
			c0-4.713,3.821-8.533,8.533-8.533C436.532,220.294,483.333,171.583,482.155,112.673z"/>
	</g>
</g>
<g>
</g>
<g>
</g>
<g>
</g>
<g>
</g>
<g>
</g>
<g>
</g>
<g>
</g>
<g>
</g>
<g>
</g>
<g>
</g>
<g>
</g>
<g>
</g>
<g>
</g>
<g>
</g>
<g>
</g>
</svg>
