<svg xmlns="http://www.w3.org/2000/svg" viewBox="0 0 40 65">
    <g class="fill">
        <path d="M20 64.1417803L.06629834 32.225822 20 .04426624 39.9337017 32.225822 20 64.1417803zM3.9558011 32.225822L20 57.8781075 36.0441989 32.225822 20 6.3522053 3.9558011 32.225822z"></path>
        <path d="M22.80699448 28.3081275l2.49723752 2.036247c-1.10497233 1.3279872-2.78453034 2.1469126-4.66298338 2.1469126-3.29281768 0-5.98895028-2.589575-5.98895028-5.7767442 0-3.1871692 2.67403315-5.7988773 5.98895028-5.7988773 1.87845304 0 3.55801105.84105854 4.66298338 2.1690457l-2.49723752 2.036247c-.48618785-.77465918-1.2596685-1.28372093-2.1436464-1.28372093-1.41436465 0-2.60773482 1.0181235-2.60773482 2.8551724 0 1.7927827 1.19337017 2.85517243 2.6077348 2.85517243.8839779.04426624 1.67955802-.4426624 2.14364642-1.2394547zM21.989 35.723h2.696v7.547h-9.9v-2.877h7.204"></path>
    </g>
</svg>