<svg xmlns="http://www.w3.org/2000/svg" width="900" height="540" viewBox="0 0 900 540" xmlns:xlink="http://www.w3.org/1999/xlink">
  <defs>
    <polygon id="a" points="0 58.926 408 58.926 408 0 0 0 0 58.926"/>
  </defs>
  <g fill="none" fill-rule="evenodd" transform="translate(268 144)">
    <mask id="b" fill="white">
      <use xlink:href="#a"/>
    </mask>
    <path fill="#010202" d="M254.201745,29.2483099 C254.201745,46.8307421 265.173923,58.9259582 283.321072,58.9259582 C298.613948,58.9259582 310.105516,50.7776908 311.746367,35.7659729 L297.661084,35.7659729 C296.712538,44.5141817 289.973846,47.4324125 283.665389,47.4324125 C274.677732,47.4324125 268.716183,40.5700425 268.716183,29.2483099 C268.716183,17.9246322 274.938291,11.5787824 283.752386,11.5787824 C290.922824,11.5787824 297.230202,15.4379875 297.749161,24.3577934 L311.574532,24.3577934 C311.055789,9.3478044 298.785783,-0.000129670329 283.752386,-0.000129670329 C266.03871,-0.000129670329 254.201745,11.6639326 254.201745,29.2483099 L254.201745,29.2483099 Z M200.544132,12.8642476 C200.544132,17.4113538 202.011637,20.7562 205.727891,25.0439656 C198.988767,27.7884381 192.768818,32.8494711 192.768818,41.2564308 C192.768818,51.3756872 201.148361,58.9259582 214.283154,58.9259582 C221.798557,58.9259582 228.193364,56.4369363 233.290126,52.147874 L239.341478,57.8968081 L256.879218,57.8968081 L256.879218,57.5540462 L241.499561,42.7156542 C244.956983,37.3965773 247.289059,30.2761634 247.893288,24.3577934 L234.932703,24.3577934 C234.673872,27.2749436 234.154913,31.2205956 232.687624,34.1353685 L225.515459,27.1037788 C231.043319,24.3577934 235.452094,19.5543722 235.452094,12.7795297 C235.452094,3.42986667 226.465516,-0.000129670329 218.514481,-0.000129670329 C208.491929,-0.000129670329 200.544132,5.22990696 200.544132,12.8642476 L200.544132,12.8642476 Z M213.936246,13.8933978 C213.936246,11.7488667 215.922494,10.6339179 218.514481,10.6339179 C221.020767,10.6339179 223.35457,11.6639326 223.35457,14.2383209 C223.35457,16.1237275 222.146113,18.6116689 218.430291,20.2416249 C216.269402,18.1818117 213.936246,15.7807495 213.936246,13.8933978 L213.936246,13.8933978 Z M206.332119,40.8265736 C206.332119,37.7393392 208.578926,34.8228374 213.418367,32.8494711 L225.083497,44.1729326 C222.146113,46.4017495 218.690202,47.6029289 214.626824,47.6029289 C210.222151,47.6029289 206.332119,45.0274601 206.332119,40.8265736 L206.332119,40.8265736 Z M4.3174603e-05,29.2483099 C4.3174603e-05,46.8307421 10.9739479,58.9259582 29.1193702,58.9259582 C44.4122463,58.9259582 55.9053257,50.7776908 57.5461765,35.7659729 L43.462621,35.7659729 C42.5129956,44.5141817 35.7721448,47.4324125 29.4651987,47.4324125 C20.4775416,47.4324125 14.5162083,40.5700425 14.5162083,29.2483099 C14.5162083,17.9246322 20.7381003,11.5787824 29.5506844,11.5787824 C36.7217702,11.5787824 43.0302273,15.4379875 43.5496178,24.3577934 L57.3732622,24.3577934 C56.8555987,9.3478044 44.58624,-0.000129670329 29.5506844,-0.000129670329 C11.8387352,-0.000129670329 4.3174603e-05,11.6639326 4.3174603e-05,29.2483099 L4.3174603e-05,29.2483099 Z M387.69438,0.942573626 L387.69438,45.8893355 C387.69438,55.9234418 391.407396,57.8968081 401.94977,57.8968081 L408.000043,57.8968081 L408.000043,47.5175626 L406.616297,47.5175626 C402.20925,47.5175626 400.912069,46.7455919 400.912069,42.7156542 L400.912069,0.942573626 L387.69438,0.942573626 Z M317.620919,10.8919619 L330.839256,10.8919619 L330.839256,0.942573626 L317.620919,0.942573626 L317.620919,10.8919619 Z M115.350494,0.942573626 L115.350494,14.151874 L108.523078,14.151874 L108.523078,24.3577934 L115.350494,24.3577934 L115.350494,45.8893355 C115.350494,55.9234418 119.0661,57.8968081 129.606532,57.8968081 L138.074799,57.8968081 L138.074799,47.5175626 L134.272411,47.5175626 C129.867091,47.5175626 128.56991,46.7455919 128.56991,42.7156542 L128.56991,24.3577934 L138.074799,24.3577934 L138.074799,14.151874 L128.56991,14.151874 L128.56991,0.942573626 L115.350494,0.942573626 Z M78.5415543,0.942573626 L66.3594083,10.8919619 L79.3133003,10.3186029 L84.5041829,6.51753333 L89.3298083,10.3186029 L102.389694,10.8919619 L90.5527289,0.942573626 L78.5415543,0.942573626 Z M336.716399,35.7659729 C336.716399,49.6610132 346.047726,58.9259582 359.784589,58.9259582 C368.859243,58.9259582 378.967281,54.4650828 381.473351,43.4003136 L369.118075,43.4003136 C367.475065,46.8307421 364.624462,48.3748996 359.871586,48.3748996 C354.947307,48.3748996 350.366697,45.0274601 350.020869,39.7116249 L381.73391,39.7116249 C382.769453,22.470874 374.129999,12.9506945 359.612754,12.9506945 C346.73744,12.9506945 336.716399,21.6139692 336.716399,35.7659729 L336.716399,35.7659729 Z M359.440919,22.5566725 C364.105072,22.5566725 368.513199,25.1304125 368.600843,31.2205956 L350.108297,31.2205956 C350.2797,25.2168593 354.947307,22.5566725 359.440919,22.5566725 L359.440919,22.5566725 Z M141.788894,35.7659729 C141.788894,49.6610132 151.120869,58.9259582 164.859243,58.9259582 C173.93217,58.9259582 184.041288,54.4650828 186.547573,43.4003136 L174.191002,43.4003136 C172.549719,46.8307421 169.696957,48.3748996 164.94624,48.3748996 C160.021961,48.3748996 155.441351,45.0274601 155.095523,39.7116249 L186.805757,39.7116249 C187.84238,22.470874 179.201846,12.9506945 164.687192,12.9506945 C151.811446,12.9506945 141.788894,21.6139692 141.788894,35.7659729 L141.788894,35.7659729 Z M164.513846,22.5566725 C169.179294,22.5566725 173.586342,25.1304125 173.671611,31.2205956 L155.182519,31.2205956 C155.353707,25.2168593 160.021961,22.5566725 164.513846,22.5566725 L164.513846,22.5566725 Z M61.8651479,36.1104637 C61.8651479,52.0635883 72.4073067,58.9259582 84.4176178,58.9259582 C96.3417956,58.9259582 107.055573,52.0635883 107.055573,36.1104637 C107.055573,20.1556103 96.3417956,13.2076579 84.4176178,13.2076579 C72.4073067,13.2076579 61.8651479,20.1556103 61.8651479,36.1104637 L61.8651479,36.1104637 Z M75.3453384,36.1104637 C75.3453384,27.8763978 79.1459987,23.7585004 84.4176178,23.7585004 C89.6896686,23.7585004 93.5773257,27.8763978 93.5773257,36.1104637 C93.5773257,44.2587311 89.6896686,48.3748996 84.4176178,48.3748996 C79.0611606,48.3748996 75.3453384,44.2587311 75.3453384,36.1104637 L75.3453384,36.1104637 Z M317.620919,57.8968081 L330.839256,57.8968081 L330.839256,14.1525223 L317.620919,14.1525223 L317.620919,57.8968081 Z" mask="url(#b)"/>
  </g>
</svg>
