<svg xmlns="http://www.w3.org/2000/svg" width="330" height="135" viewBox="0 0 330 135" style="background:#fff">
  <path fill="#020203" fill-rule="evenodd" d="M48.9259688,101.161003 C48.8319826,101.271334 48.791119,101.398011 48.6848737,101.508343 C47.7940475,102.399169 46.0982088,103.375809 43.6382211,104.397398 L43.3480896,103.968331 C42.7433086,103.0489 42.2897228,102.243887 41.9260369,101.508343 C41.3825512,100.409113 41.071988,99.4978547 41.071988,98.839951 C41.071988,97.6099571 41.505142,96.5965402 42.3510182,95.8283048 C43.2132398,95.0600695 44.3002111,94.6636927 45.5915004,94.6636927 C46.1881087,94.6636927 46.6948171,94.7781107 47.1770074,94.9170469 C47.3690663,94.9701696 47.548866,95.0396377 47.7245794,95.1172785 C48.1577334,95.3093373 48.5663693,95.5300007 48.8769325,95.8609957 C49.2528775,96.2614588 49.5389226,96.6864401 49.726895,97.1359395 C49.9148675,97.5854389 50.0088538,98.0594565 50.0088538,98.5498195 C50.0088538,99.4896819 49.6083907,100.35599 48.9259688,101.161003 L48.9259688,101.161003 Z M44.1653613,129.409998 C41.4683648,129.409998 39.1350541,128.441531 37.2430702,126.537288 C36.7690526,126.06327 36.3563305,125.564735 36.0008173,125.045767 C34.9342777,123.488865 34.3907921,121.748076 34.3907921,119.839747 C34.3907921,119.210447 34.5460737,118.638357 34.6686644,118.058094 C35.2897909,115.148607 37.3534019,112.803038 41.0188654,111.135803 L47.2628209,119.905128 L51.6311381,126.042839 C50.6258939,127.048083 49.555268,127.795886 48.4437785,128.351631 C47.0830212,129.029967 45.6609685,129.409998 44.1653613,129.409998 L44.1653613,129.409998 Z M112.407546,100.449976 L104.120411,127.105292 L96.2623442,100.449976 L87.5461418,100.449976 L80.6851461,127.105292 L72.5614656,100.449976 L64.6380168,100.449976 L74.2082681,128.625417 L61.7407887,128.625417 L59.5709324,125.834434 C61.3076347,123.627801 62.7623783,120.49765 63.8861268,116.542055 L67.1061772,116.542055 L64.9077164,110.678131 L59.1296057,110.678131 L59.0969148,110.853845 C58.4471838,114.682762 57.3438671,118.009058 55.8237417,120.755091 L47.115712,108.978206 C50.3235034,107.637881 52.6772458,106.203569 54.0992985,104.712048 C55.5785602,103.163318 56.3304502,101.156916 56.3304502,98.7459647 C56.3304502,95.9876728 55.267997,93.6421031 53.1676088,91.7868964 C51.083566,89.9398624 48.4846421,89 45.4607369,89 C42.5389907,89 39.9482395,89.9439488 37.7497787,91.8032418 C35.5431451,93.6707076 34.4234829,96.0939181 34.4234829,99.0034053 C34.4234829,101.569638 35.4082953,104.14813 37.3411428,106.689845 C32.8216305,108.728938 29.863107,111.491316 28.4083634,114.911598 L7.38813594,114.88708 C7.4412586,111.93673 8.18906218,109.799564 9.65197848,108.475584 C11.1108084,107.147518 13.444119,106.485527 16.647824,106.485527 L28.5391269,106.485527 L28.5391269,100.449976 L17.2689505,100.449976 C13.9426548,100.449976 11.1639311,100.772798 8.93686576,101.418443 C6.70571409,102.060001 4.91997548,103.0489 3.58373629,104.385139 C2.27610161,105.692774 1.35258462,107.38044 0.813185316,109.448137 C0.273786011,111.511748 0,114.75223 0,119.17367 L0,135.322959 L7.38813594,135.322959 L7.38813594,120.922632 L27.4276374,120.922632 C27.6156099,124.890486 29.0907853,128.290336 31.9308043,130.991419 C34.9669686,133.872301 38.8571818,135.335218 43.4951985,135.335218 C47.491657,135.335218 51.459511,133.811006 55.2843424,130.815705 L58.1611387,135.335218 L76.6192195,135.335218 L76.6151331,135.318872 L85.3599401,135.318872 L91.8940271,109.219301 L99.4660492,135.318872 L108.390656,135.318872 L120,100.449976 L112.407546,100.449976 Z"/>
</svg>
