<svg xmlns="http://www.w3.org/2000/svg" width="900" height="540" viewBox="0 0 900 540" xmlns:xlink="http://www.w3.org/1999/xlink">
  <defs>
    <polygon id="a" points="58.298 23.242 58.298 .053 .353 .053 .353 23.242"/>
  </defs>
  <g fill="none" fill-rule="evenodd">
    <g transform="translate(310 141)">
      <polygon fill="#010202" points="8.899 .842 0 23.985 11.213 23.98 14.63 15.078 46.387 15.072 48.436 9.73 16.679 9.738 18.054 6.178 51.225 6.17 53.277 .828"/>
      <polygon fill="#010202" points="66.035 .825 57.14 23.968 97.557 23.958 99.606 18.617 70.397 18.623 77.235 .823"/>
      <g transform="translate(103.538 .717)">
        <path fill="#010202" d="M17.9478988,23.2350385 L21.3705477,14.3342692 L12.9941339,14.3342692 C4.77819784,14.3369615 -0.591230765,11.2811923 0.792561221,7.2185 L3.525945,0.0973461538 L14.7304508,0.0946538462 L11.9944363,7.2158077 C11.5629878,8.3761923 13.2572122,8.99273077 15.0487756,8.99273077 L42.0984889,8.98734615 C44.537225,8.98465385 45.8841859,8.5511923 46.697098,6.80657692 L49.2489577,0.0838846153 L60.461356,0.0811923077 L57.7279721,7.20234615 C55.9548243,11.8115769 51.6087704,14.3261923 41.8406721,14.3288846 L32.5776844,14.3288846 L29.1550353,23.2323462 L17.9478988,23.2350385 Z"/>
        <polygon fill="#010202" points="111.144 17.868 109.091 23.21 64.262 23.222 73.159 .078 117.533 .067 115.479 5.408 82.309 5.417 80.945 8.977 112.697 8.965 110.643 14.31 78.892 14.318 77.527 17.877"/>
        <g transform="translate(121.953)">
          <mask id="b" fill="white">
            <use xlink:href="#a"/>
          </mask>
          <path fill="#010202" d="M18.4129275,5.40253847 L17.0422894,8.95907692 L42.7476725,8.9536923 C45.5889184,8.9536923 46.793817,8.13523077 47.1621267,7.17138462 C47.5462211,6.17792308 46.1282289,5.39446153 44.1156797,5.39446153 L18.4129275,5.40253847 Z M45.7888579,0.052923077 C53.8469469,0.0502307692 59.7188551,1.19176923 57.9983228,6.81061538 C57.3695657,8.85407692 55.6911259,10.2702308 53.652269,11.4790769 C54.4625502,12.0498461 56.4251145,13.4094615 55.4043706,16.0721538 L52.6657253,23.1933077 L41.4585886,23.1933077 L44.1972341,16.0748461 C44.5366051,15.1836923 43.7789394,14.2952308 41.7400825,14.2952308 L14.9902785,14.3033077 L11.5597371,23.239077 L0.352600492,23.2417692 L9.2525402,0.0636923077 L45.7888579,0.052923077 Z" mask="url(#b)"/>
        </g>
      </g>
    </g>
    <g transform="translate(513 191)">
      <polygon fill="#C36F70" points="15.017 .001 .001 37.923 45.09 37.923 59.939 .001"/>
      <polygon fill="#FEFEFE" points="34.658 7.578 34.658 7.577 31.497 7.578 22.137 30.345 25.283 30.344 25.283 30.345 28.442 30.344 37.802 7.577"/>
      <polygon fill="#FEFEFE" points="18.931 16.025 17.72 18.961 16.509 21.898 41.009 21.898 42.218 18.961 43.428 16.025"/>
    </g>
  </g>
</svg>
