<svg xmlns="http://www.w3.org/2000/svg" width="343" height="140" viewBox="0 0 343 140">
  <path fill="#1D1C1B" fill-rule="evenodd" d="M138.688929,132.371323 C138.668339,131.856177 138.640481,131.337404 138.612623,130.811374 C138.741012,130.824676 138.894836,130.839187 139.052294,130.85128 C139.207329,130.864582 139.391434,130.869419 139.596129,130.86821 C139.791135,130.86821 139.971606,130.860954 140.130275,130.846443 C140.288944,130.833141 140.435501,130.817421 140.573579,130.804119 C140.54451,131.328939 140.526342,131.847712 140.508174,132.364067 C140.488794,132.88405 140.488794,133.47538 140.491217,134.141683 L140.498484,135.789908 C140.500907,136.453793 140.506963,137.051169 140.531187,137.568733 C140.551778,138.088716 140.576002,138.594187 140.608705,139.091194 C140.470626,139.074265 140.32528,139.063381 140.166611,139.063381 L139.631254,139.0658 L139.086208,139.068218 C138.929961,139.069428 138.774926,139.08152 138.647748,139.099659 C138.670761,138.602652 138.694985,138.095971 138.711942,137.575989 C138.71921,137.058424 138.720421,136.462258 138.717998,135.797163 L138.711942,134.150148 C138.708309,133.482635 138.702253,132.891306 138.688929,132.371323 L138.688929,132.371323 Z M133.194859,133.104136 C132.988953,133.584213 132.808482,134.063081 132.621955,134.529856 C132.434217,135.001469 132.261013,135.483964 132.08902,135.973716 L134.280108,135.964042 C134.100848,135.476709 133.924011,134.995422 133.753229,134.525019 C133.582448,134.059453 133.401977,133.583004 133.194859,133.104136 L133.194859,133.104136 Z M137.461969,139.104496 C137.270597,139.088776 137.099816,139.076683 136.922978,139.076683 L136.40579,139.079102 L135.899502,139.08152 C135.731143,139.08273 135.562784,139.096031 135.390792,139.112961 C135.270881,138.72116 135.129169,138.318476 134.994724,137.907326 C134.857857,137.49134 134.718568,137.0814 134.56111,136.670251 C134.300698,136.656949 134.047555,136.65574 133.791988,136.653321 C133.534,136.650903 133.279644,136.643647 133.034979,136.644856 C132.818172,136.646066 132.609843,136.654531 132.406359,136.659368 C132.201663,136.664205 131.989701,136.666623 131.783794,136.681134 C131.62997,137.093493 131.480991,137.505851 131.345335,137.921838 C131.216946,138.335405 131.087346,138.739299 130.978336,139.132309 C130.886284,139.11538 130.785753,139.103287 130.699757,139.103287 L130.416333,139.104496 L130.135331,139.105705 C130.0348,139.106915 129.933058,139.120217 129.817993,139.137146 C129.912468,138.927944 130.039645,138.63893 130.198314,138.270105 C130.355772,137.896443 130.533821,137.473201 130.716714,137.013681 C130.909297,136.544488 131.113993,136.046272 131.327166,135.510568 C131.546396,134.968819 131.763204,134.423441 131.983645,133.878064 C132.194396,133.330268 132.408781,132.788519 132.61711,132.257652 C132.829073,131.724368 133.011966,131.230989 133.18517,130.77026 C133.271166,130.787189 133.34505,130.800491 133.418934,130.815002 C133.492818,130.824676 133.567914,130.833141 133.65391,130.833141 C133.725371,130.833141 133.8041,130.823467 133.87314,130.812584 C133.94339,130.798073 134.022119,130.784771 134.100848,130.765422 C134.357626,131.447446 134.636205,132.181469 134.93053,132.959025 C135.223644,133.738999 135.522814,134.504462 135.824407,135.260251 C136.125999,136.005157 136.414268,136.72104 136.690425,137.397018 C136.970216,138.070577 137.230627,138.644977 137.461969,139.104496 L137.461969,139.104496 Z M127.223571,135.597635 C126.970427,135.317086 126.605851,135.18044 126.131055,135.182858 C126.019623,135.182858 125.922726,135.187695 125.848842,135.187695 C125.764057,135.198579 125.692595,135.199788 125.618711,135.199788 C125.618711,135.367875 125.619923,135.545637 125.615078,135.725817 C125.60781,135.905997 125.609022,136.122455 125.609022,136.371563 C125.610233,136.561417 125.611444,136.760946 125.621134,136.962892 C125.62719,137.157584 125.628401,137.361949 125.628401,137.553013 C125.629612,137.750122 125.640513,137.919419 125.641724,138.08146 C125.647781,138.244711 125.647781,138.37652 125.648992,138.482935 C125.75679,138.492609 125.863377,138.498656 125.959063,138.501074 C126.05596,138.50833 126.16618,138.511958 126.299414,138.510748 C126.477463,138.510748 126.643399,138.47568 126.800857,138.401915 C126.955892,138.324522 127.093971,138.219316 127.216304,138.074205 C127.336214,137.936349 127.430689,137.762215 127.496094,137.562687 C127.568767,137.361949 127.602681,137.122515 127.60147,136.861314 C127.599047,136.29538 127.477926,135.873347 127.223571,135.597635 L127.223571,135.597635 Z M127.444012,132.407601 C127.396775,132.240723 127.321679,132.089565 127.225993,131.965011 C127.106083,131.839248 126.982539,131.741297 126.815392,131.661486 C126.661567,131.591349 126.461717,131.550234 126.226741,131.551443 C126.047481,131.552652 125.917881,131.552652 125.852476,131.561117 C125.790704,131.564745 125.71682,131.57321 125.630824,131.591349 C125.621134,131.890037 125.615078,132.192352 125.601754,132.494668 C125.594487,132.80182 125.595698,133.058184 125.595698,133.263759 C125.59691,133.480217 125.598121,133.687001 125.60781,133.882901 C125.613867,134.086057 125.613867,134.279539 125.615078,134.489951 L126.154068,134.487532 C126.313949,134.487532 126.485941,134.45851 126.649455,134.388373 C126.81418,134.325491 126.957104,134.22875 127.081859,134.109033 C127.216304,133.980851 127.318046,133.822438 127.394352,133.631374 C127.473081,133.440311 127.516685,133.210551 127.515474,132.956606 C127.514262,132.764333 127.485193,132.579316 127.444012,132.407601 L127.444012,132.407601 Z M123.807945,132.434205 C123.786144,131.919059 123.751018,131.400285 123.714682,130.875465 C123.847915,130.887558 123.999317,130.902069 124.157986,130.914162 C124.314233,130.927464 124.501971,130.93351 124.701822,130.932301 C125.040962,130.931091 125.399482,130.918999 125.779803,130.894814 C126.148012,130.874256 126.517433,130.863373 126.85415,130.860954 C127.22236,130.859745 127.54212,130.894814 127.832812,130.964951 C128.135616,131.035088 128.388759,131.14634 128.611623,131.29387 C128.822374,131.436563 128.991944,131.630045 129.108221,131.86827 C129.223286,132.108913 129.279002,132.396717 129.280213,132.719591 C129.282636,133.047301 129.213597,133.333896 129.083997,133.568493 C128.948341,133.806717 128.779982,134.005037 128.584976,134.16345 C128.394815,134.318236 128.174374,134.443999 127.945455,134.533484 C127.720169,134.624179 127.516685,134.684642 127.327735,134.714874 L127.327735,134.735431 C127.509418,134.742687 127.729859,134.78622 127.97089,134.861194 C128.221612,134.936169 128.457799,135.053467 128.685507,135.21309 C128.904737,135.372712 129.092475,135.581915 129.254778,135.838278 C129.40618,136.087386 129.488542,136.400585 129.489754,136.756109 C129.492176,137.193862 129.412236,137.571151 129.263256,137.872258 C129.103376,138.175783 128.898681,138.427309 128.641903,138.624419 C128.388759,138.82032 128.084745,138.953338 127.750449,139.036778 C127.418576,139.11538 127.07338,139.14803 126.713649,139.149239 C126.3951,139.151657 126.10562,139.150448 125.822195,139.140774 C125.546038,139.1311 125.262614,139.126263 124.959811,139.127472 L124.292431,139.1311 C124.064723,139.132309 123.883041,139.145611 123.749807,139.162541 C123.78251,138.665534 123.81279,138.160062 123.829747,137.63887 C123.843071,137.121306 123.846704,136.525139 123.843071,135.861254 L123.835803,134.21303 C123.833381,133.545517 123.826114,132.954187 123.807945,132.434205 L123.807945,132.434205 Z M116.748986,139.186726 C116.312949,139.085148 115.931416,138.903759 115.599543,138.652232 C115.268882,138.403124 115.013315,138.072995 114.823155,137.677567 C114.636628,137.283347 114.542153,136.796014 114.540942,136.221615 L114.537308,135.361829 C114.540942,135.111512 114.54942,134.874496 114.548209,134.651992 C114.546998,134.436743 114.545786,134.232378 114.557899,134.030431 C114.560321,133.827275 114.55911,133.615654 114.55911,133.396778 C114.555476,132.746194 114.550631,132.225002 114.537308,131.817481 C114.526407,131.414796 114.51914,131.112481 114.500972,130.914162 C114.660852,130.927464 114.828,130.940766 114.993936,130.952858 C115.156239,130.96616 115.324598,130.972206 115.477211,130.970997 C115.646781,130.969788 115.804239,130.962532 115.972597,130.94923 C116.131267,130.935928 116.299625,130.920208 116.458295,130.905697 C116.377143,131.683253 116.34444,132.413647 116.325061,133.082369 C116.311738,133.752301 116.309315,134.431906 116.311738,135.128441 C116.315371,135.858836 116.367453,136.448956 116.470407,136.902429 C116.575782,137.349856 116.732029,137.696915 116.933091,137.938767 C117.138997,138.187875 117.386085,138.349916 117.684044,138.429728 C117.975947,138.507121 118.31872,138.544608 118.712365,138.543398 C119.18595,138.54098 119.560215,138.421263 119.825471,138.175783 C120.096784,137.932721 120.295423,137.611057 120.444402,137.209582 C120.576425,136.80327 120.658787,136.344959 120.69149,135.827395 C120.718137,135.315877 120.738727,134.765663 120.736305,134.205774 C120.733882,133.653141 120.719348,133.093253 120.697546,132.547875 C120.6818,131.992824 120.658787,131.438982 120.617606,130.887558 C120.735094,130.90086 120.846525,130.915371 120.949479,130.927464 C121.053643,130.940766 121.149329,130.946812 121.231692,130.946812 C121.338279,130.945603 121.442443,130.939556 121.538129,130.925045 C121.633815,130.911743 121.733135,130.897232 121.837299,130.882721 C121.822764,131.058064 121.800963,131.295079 121.787639,131.594977 C121.767049,131.892455 121.750092,132.235886 121.740402,132.627687 C121.727079,133.014651 121.713755,133.443939 121.699221,133.91676 C121.689531,134.385954 121.681052,134.887798 121.683475,135.410199 C121.689531,136.809316 121.403684,137.813004 120.804133,138.424891 C120.207004,139.034359 119.332507,139.340302 118.185487,139.345139 C117.673143,139.347558 117.193502,139.296769 116.748986,139.186726 L116.748986,139.186726 Z M106.99144,136.825037 L106.995074,137.546966 C106.996285,137.782772 106.997496,137.988347 107.003552,138.183038 C107.015665,138.380148 107.016876,138.505911 107.016876,138.562747 C107.131941,138.571211 107.277287,138.577258 107.445646,138.577258 C107.614005,138.586932 107.823545,138.58935 108.073055,138.588141 C108.971776,138.584513 109.686393,138.271314 110.207215,137.653381 C110.735305,137.029402 110.996927,136.089805 110.992083,134.829754 C110.98966,134.335165 110.918198,133.887738 110.787387,133.489891 C110.649309,133.09688 110.465204,132.763124 110.226595,132.484994 C109.987986,132.210491 109.694872,131.995242 109.359365,131.848922 C109.021436,131.70381 108.648382,131.626417 108.229302,131.627627 C107.939821,131.628836 107.710902,131.640928 107.525586,131.65544 C107.354805,131.666323 107.171911,131.684462 106.986595,131.697764 C106.986595,131.752181 106.987807,131.879153 106.976906,132.071426 C106.972061,132.264908 106.973272,132.49104 106.974483,132.723218 L106.976906,133.451194 L106.979328,134.053407 L106.989018,136.203476 L106.99144,136.825037 Z M105.178252,132.514016 C105.155239,131.997661 105.134648,131.478887 105.098312,130.954067 C105.237601,130.967369 105.389003,130.98188 105.544039,130.992764 C105.706342,131.006066 105.883179,131.010903 106.090297,131.010903 C106.344652,131.009693 106.640188,130.99881 106.967216,130.974625 C107.294244,130.954067 107.723014,130.943184 108.243836,130.940766 C108.93544,130.937138 109.558004,130.996392 110.123642,131.118527 C110.686856,131.240663 111.176187,131.453493 111.585578,131.743716 C111.987701,132.043613 112.303828,132.442669 112.530325,132.940886 C112.758034,133.447567 112.873099,134.075174 112.875521,134.846683 C112.877944,135.509359 112.773779,136.115199 112.555761,136.658158 C112.341376,137.192652 112.03615,137.653381 111.661884,138.040345 C111.277929,138.421263 110.840681,138.719951 110.345294,138.920688 C109.849907,139.123844 109.313339,139.224213 108.750124,139.225422 C108.152995,139.22905 107.635807,139.22905 107.222782,139.220585 C106.79159,139.209702 106.424592,139.206074 106.125422,139.207284 L105.577953,139.209702 C105.424129,139.210911 105.272727,139.224213 105.132226,139.241143 C105.164929,138.745345 105.183097,138.238664 105.201265,137.718681 C105.208532,137.201117 105.220644,136.603742 105.217011,135.939856 L105.210955,134.291632 C105.207321,133.624119 105.191575,133.03279 105.178252,132.514016 L105.178252,132.514016 Z M95.7598463,132.552712 C95.7416781,132.037567 95.7138202,131.518793 95.6762725,130.993973 C96.0408481,131.002438 96.4054238,131.008484 96.7542536,131.025414 C97.1030834,131.042344 97.4579693,131.047181 97.8189113,131.045971 C98.4111953,131.043553 98.9344401,131.035088 99.3934905,131.019368 C99.8513296,131.004856 100.156556,130.987927 100.318858,130.974625 C100.287367,131.102807 100.272832,131.269685 100.274044,131.480097 C100.274044,131.609488 100.284944,131.713484 100.289789,131.779994 C100.293423,131.854968 100.31038,131.934779 100.323703,132.026683 C100.086305,132.008544 99.8428511,131.995242 99.5630605,131.977103 C99.2929596,131.965011 99.0180139,131.94929 98.76487,131.93357 C98.4935579,131.922687 98.2658496,131.909385 98.0647879,131.899711 C97.8552478,131.893664 97.7111132,131.888827 97.6117936,131.888827 C97.5887805,132.331417 97.5681899,132.76917 97.5694011,133.205714 C97.5681899,133.639839 97.5621338,134.075174 97.563345,134.517764 C98.0890122,134.505671 98.550485,134.492369 98.9744102,134.476649 C99.391068,134.459719 99.8319502,134.437952 100.286156,134.414977 C100.26072,134.550414 100.249819,134.653201 100.232862,134.725757 C100.23044,134.797103 100.228017,134.873287 100.228017,134.953098 C100.228017,135.017189 100.231651,135.087326 100.247397,135.155045 C100.263143,135.225182 100.274044,135.319505 100.291001,135.450105 C99.3801671,135.381177 98.4717561,135.348527 97.5669787,135.352155 L97.5706123,135.965251 C97.5730347,136.636392 97.5863581,137.232558 97.6117936,137.745285 C97.6275394,138.270105 97.6493413,138.776786 97.6844665,139.273793 C97.5427544,139.256863 97.399831,139.244771 97.2435843,139.24598 L96.6936929,139.248398 L96.158336,139.249608 C96.000878,139.250817 95.8555323,139.264119 95.7126089,139.281049 C95.7441005,138.784042 95.7683248,138.27857 95.7816482,137.758587 C95.7986052,137.239814 95.8058725,136.643647 95.80345,135.979762 L95.7961828,134.331537 C95.7925491,133.664025 95.780437,133.072695 95.7598463,132.552712 L95.7598463,132.552712 Z M92.2642807,133.501983 C92.141948,133.088416 91.9590546,132.73652 91.7289238,132.449925 C91.5084827,132.160911 91.2274809,131.939616 90.9101426,131.779994 C90.579481,131.625208 90.2233839,131.542978 89.8382176,131.544187 C89.4348831,131.546606 89.0703075,131.650603 88.7432795,131.853759 C88.4223076,132.047241 88.1534179,132.315697 87.9341881,132.660337 C87.7101133,133.001349 87.5405433,133.39315 87.4266891,133.849042 C87.3164686,134.309771 87.2619639,134.794685 87.2643863,135.306203 C87.2668088,135.948321 87.3334256,136.493699 87.4690816,136.935079 C87.6132162,137.380088 87.8033769,137.734402 88.0262404,138.00044 C88.2624273,138.270105 88.5264721,138.462378 88.8316982,138.583304 C89.1369243,138.70544 89.4518401,138.762275 89.7873466,138.761066 C90.1494998,138.759856 90.4850063,138.682464 90.8168791,138.52405 C91.1414846,138.371683 91.4297537,138.135877 91.6695742,137.82026 C91.9093948,137.507061 92.1092452,137.108004 92.2485349,136.624299 C92.3999367,136.141803 92.4665535,135.568613 92.4629199,134.908356 C92.4604974,134.384745 92.3987255,133.91797 92.2642807,133.501983 L92.2642807,133.501983 Z M85.6159231,133.518913 C85.8448427,132.99893 86.1440127,132.534573 86.5412912,132.143982 C86.9361471,131.742507 87.4157882,131.434145 87.9862703,131.205594 C88.5506964,130.979462 89.1781056,130.864582 89.8818213,130.860954 C90.5128642,130.859745 91.109993,130.948021 91.6598845,131.118527 C92.209776,131.290242 92.6930507,131.553862 93.0963852,131.908175 C93.5009309,132.26128 93.8279589,132.708707 94.0689906,133.250457 C94.3039662,133.792206 94.4250877,134.428278 94.4287214,135.150208 C94.4311438,135.756049 94.3148672,136.315937 94.0895812,136.840757 C93.8679289,137.363158 93.5530131,137.822678 93.1557347,138.214479 C92.7487665,138.605071 92.2727592,138.908596 91.719234,139.129891 C91.1620753,139.353604 90.5492006,139.462438 89.8709204,139.464856 C89.2447224,139.467275 88.6512272,139.395928 88.1013357,139.238724 C87.5453881,139.087567 87.0609023,138.831203 86.6466668,138.484145 C86.2348538,138.138296 85.9126707,137.692078 85.6655829,137.14791 C85.42334,136.607369 85.3082746,135.956786 85.3046409,135.200997 C85.3022185,134.607249 85.4051718,134.04857 85.6159231,133.518913 L85.6159231,133.518913 Z M77.3627061,132.403973 C77.3578612,132.210491 77.3469603,132.071426 77.3275808,131.974685 C77.2088818,131.974685 77.0586912,131.986778 76.8842763,131.996452 C76.7086501,132.000079 76.5257567,132.0158 76.3246951,132.026683 C76.1248446,132.037567 75.9213606,132.055705 75.7166653,132.073844 C75.5107588,132.095611 75.3169644,132.118587 75.1425495,132.140354 C75.1619289,132.056915 75.1704074,131.962592 75.1752523,131.874316 C75.1897869,131.787249 75.1994766,131.697764 75.1994766,131.607069 C75.1994766,131.522421 75.1885757,131.432935 75.1740411,131.345868 C75.1667738,131.255174 75.1582953,131.169316 75.1377046,131.08104 C75.4090167,131.089505 75.6488373,131.095551 75.8717008,131.100388 C76.0933531,131.112481 76.3162166,131.117318 76.5415025,131.119736 C76.7704221,131.118527 77.0090314,131.124573 77.2839771,131.126992 C77.5492331,131.128201 77.8738387,131.13062 78.248104,131.12941 C78.6211582,131.126992 78.9397076,131.122155 79.2158646,131.118527 C79.4799094,131.11369 79.725786,131.106434 79.9486495,131.106434 C80.1787803,131.100388 80.3895316,131.094342 80.6014942,131.079831 C80.814668,131.073784 81.0399539,131.06532 81.2894642,131.054436 C81.2700847,131.142712 81.2628174,131.229779 81.2470717,131.320474 C81.2337483,131.406332 81.2325371,131.497026 81.2325371,131.581675 C81.2325371,131.672369 81.2349595,131.761855 81.2494941,131.848922 C81.2664511,131.937198 81.2737184,132.030311 81.294309,132.114959 C81.1356399,132.093193 80.9588025,132.072635 80.7504736,132.052078 C80.5566793,132.035148 80.3531952,132.019428 80.1678793,132.009754 C79.9656065,132.001289 79.7851355,131.987987 79.5986084,131.985568 C79.4290384,131.975894 79.2824814,131.96622 79.1625711,131.967429 C79.1577263,132.014591 79.1456141,132.070217 79.1419805,132.142772 L79.1431917,132.396717 L79.1468253,133.037627 L79.1601487,136.049899 C79.1625711,136.72104 79.1637823,137.31116 79.1880066,137.828724 C79.2037524,138.348707 79.2340328,138.854179 79.2643132,139.351186 C79.1322908,139.334256 78.9748329,139.323373 78.8210086,139.323373 L78.2832293,139.325791 L77.7490836,139.32821 C77.5843584,139.32821 77.4365902,139.341512 77.3033566,139.359651 C77.3275808,138.862644 77.3542276,138.355963 77.3675509,137.83598 C77.3796631,137.318416 77.3881416,136.728296 77.3845079,136.057155 L77.3723958,133.044882 C77.3711846,132.807867 77.3687621,132.593827 77.3627061,132.403973 L77.3627061,132.403973 Z M66.723396,132.116169 C66.7015942,131.737669 66.6967493,131.40875 66.6870596,131.116109 C66.9026558,131.157224 67.0867605,131.176572 67.2248389,131.175362 C67.3568613,131.175362 67.5349099,131.154805 67.7614071,131.111272 C68.6322704,132.084728 69.5019226,133.035208 70.3546178,133.973596 C71.2012568,134.911983 72.0842324,135.866091 72.9768976,136.837129 L72.9720527,135.785071 L72.9672079,134.613296 L72.962363,133.445148 C72.9599406,133.066649 72.956307,132.712335 72.9502509,132.395508 C72.9381387,132.069007 72.9296602,131.795714 72.9175481,131.562326 C72.9078584,131.32773 72.8933238,131.170525 72.877578,131.090714 C73.1052864,131.13062 73.2772789,131.149968 73.4214134,131.148759 C73.5522246,131.148759 73.7302732,131.128201 73.9543479,131.085877 C73.9143778,131.81869 73.8865199,132.482575 73.8635068,133.070277 C73.8417049,133.661606 73.8186918,134.216657 73.8102133,134.739059 C73.7884115,135.267507 73.7847778,135.781443 73.7835666,136.29417 L73.7908339,137.930302 L73.79689,139.374162 C73.6261087,139.358441 73.4650171,139.346349 73.3015031,139.347558 C73.1222434,139.347558 72.9684191,139.36086 72.8327631,139.37779 C71.1842998,137.457481 69.4328834,135.520242 67.5797248,133.570911 C67.5688239,133.805508 67.5700351,134.043733 67.5555006,134.269865 C67.5542893,134.50688 67.5542893,134.745105 67.5542893,134.98333 L67.5615566,136.387284 C67.5627678,136.86857 67.5664015,137.280928 67.5712463,137.617103 C67.5760912,137.956906 67.5882034,138.238664 67.5894146,138.470843 C67.6100052,138.707858 67.6172725,138.896503 67.6221174,139.04887 C67.6305959,139.195191 67.6402856,139.312489 67.6523977,139.399556 C67.557923,139.383836 67.4646595,139.371743 67.3689735,139.371743 L67.084338,139.372952 C66.9087119,139.374162 66.7221848,139.387464 66.5441363,139.404393 C66.5501923,139.34393 66.5695718,139.116589 66.5974297,138.715114 C66.6168092,138.324522 66.6458783,137.845654 66.6604129,137.276091 C66.6943269,136.711366 66.7161288,136.095851 66.7318746,135.430757 C66.7476203,134.768081 66.7573101,134.127172 66.7548876,133.515285 C66.7524652,132.960234 66.7415643,132.497086 66.723396,132.116169 L66.723396,132.116169 Z M60.5268216,132.702661 C60.5074421,132.187515 60.4856403,131.667532 60.4517263,131.142712 C60.811457,131.151177 61.166343,131.158433 61.5139616,131.174153 C61.8676363,131.192292 62.2249446,131.197129 62.588309,131.194711 C63.1745369,131.192292 63.705049,131.183827 64.1592545,131.168107 C64.6195161,131.153596 64.9271646,131.137875 65.0834113,131.123364 C65.0616095,131.251546 65.0373852,131.419633 65.0385964,131.628836 C65.0398076,131.758227 65.0434412,131.862224 65.053131,131.929942 C65.0652431,132.004916 65.0737216,132.084728 65.0882562,132.175422 C64.8593366,132.158493 64.6122488,132.145191 64.3276133,132.125843 C64.0526676,132.11375 63.7874116,132.099239 63.5342677,132.082309 C63.2774902,132.071426 63.034036,132.058124 62.830552,132.049659 C62.6210118,132.043613 62.4732436,132.037567 62.3872474,132.037567 C62.3545446,132.481366 62.3387988,132.91791 62.3412212,133.355663 C62.3339539,133.789788 62.3351651,134.223913 62.3375876,134.666503 C62.8571987,134.65562 63.3259388,134.641109 63.7365406,134.626597 C64.1616769,134.608458 64.5989254,134.586692 65.0458637,134.564925 C65.0240618,134.699153 65.0095272,134.80315 65.0071048,134.875705 C64.9925702,134.945843 64.9925702,135.023236 64.9925702,135.101838 C64.9937814,135.165928 65.0058936,135.237275 65.0095272,135.303784 C65.0228506,135.373922 65.0410188,135.469453 65.0507085,135.598844 C64.1459311,135.531126 63.2411538,135.497266 62.3412212,135.500894 C62.3424324,135.758467 62.3339539,136.011203 62.3351651,136.268776 C62.3278979,136.529977 62.3291091,136.785131 62.3303203,137.041495 C62.3327427,137.566314 62.3436437,138.064531 62.3690792,138.544608 C62.819651,138.543398 63.276279,138.530097 63.7292733,138.504702 C64.1907461,138.482935 64.6437404,138.445448 65.1064244,138.388613 C65.0918898,138.478098 65.0822001,138.55791 65.0688768,138.628047 C65.0640319,138.700603 65.0555534,138.807018 65.0567646,138.930362 C65.0567646,139.059754 65.0664543,139.161332 65.0712992,139.233887 C65.0834113,139.305234 65.0955235,139.365697 65.1112693,139.41044 C64.889617,139.406812 64.630417,139.399556 64.3167124,139.39351 C64.0017966,139.386254 63.5706042,139.388673 63.017079,139.391091 L61.8361447,139.395928 L61.1263729,139.398347 C60.9434794,139.399556 60.8126683,139.399556 60.7169823,139.408021 C60.6273524,139.416486 60.5437786,139.424951 60.4880627,139.430997 C60.5159207,138.93399 60.5353001,138.427309 60.5486235,137.907326 C60.5558907,137.389762 60.5716365,136.792386 60.5692141,136.128501 L60.5619468,134.481486 C60.5583132,133.813973 60.5389337,133.222644 60.5268216,132.702661 L60.5268216,132.702661 Z M50.71356,136.77062 C50.6602665,137.667892 50.5984946,138.574839 50.5379339,139.473321 C50.4398255,139.456392 50.3514068,139.444299 50.2484535,139.444299 L49.9710854,139.445508 L49.6937172,139.446717 C49.6089322,139.447927 49.512035,139.460019 49.410293,139.476949 C49.6573808,138.094762 49.8875116,136.717412 50.0764611,135.349736 C50.2738891,133.980851 50.448304,132.593827 50.611818,131.185037 C50.7002366,131.198338 50.7777544,131.21285 50.8528497,131.224942 C50.9327899,131.238244 51.0103076,131.24429 51.1023599,131.243081 C51.176244,131.243081 51.2525505,131.237035 51.3276459,131.222524 C51.4051636,131.210431 51.4923711,131.194711 51.5759449,131.181409 C51.7927523,131.657858 52.0228831,132.154865 52.265126,132.653081 C52.5013129,133.150088 52.7374998,133.643467 52.9736866,134.136846 C53.2110847,134.630225 53.4545389,135.117558 53.6846697,135.586752 C53.9269126,136.060783 54.1534098,136.515465 54.3665836,136.937498 C54.8450134,136.034179 55.3173871,135.092163 55.7837048,134.099359 C56.2560785,133.111392 56.704228,132.134308 57.132998,131.157224 C57.3280035,131.197129 57.5060521,131.216477 57.6429194,131.215268 C57.7834203,131.215268 57.9493567,131.194711 58.1419398,131.152386 C58.2291473,131.840457 58.3187772,132.586572 58.4144631,133.381057 C58.504093,134.17917 58.6034126,134.959145 58.6954649,135.718561 C58.7826724,136.480397 58.8723023,137.184187 58.9631434,137.848073 C59.0576181,138.507121 59.1387695,139.035568 59.2114424,139.435834 C59.0551957,139.420114 58.8856257,139.408021 58.7281677,139.408021 L58.2424706,139.41044 L57.7507175,139.412858 C57.5835698,139.414067 57.4127886,139.42616 57.2468521,139.444299 C57.2056708,138.617163 57.1366316,137.723519 57.0385232,136.758527 C56.9440485,135.788699 56.8459401,134.834591 56.7478317,133.886529 L56.7236074,133.886529 C56.2706131,134.837009 55.8273085,135.772978 55.3924824,136.692018 C54.9637124,137.611057 54.5288863,138.537352 54.10375,139.457601 C54.0662023,139.452764 54.0274434,139.444299 53.9874734,139.437043 C53.9523481,139.428579 53.9184341,139.428579 53.8748304,139.428579 C53.8360715,139.428579 53.7924678,139.429788 53.7633986,139.438253 C53.7270622,139.445508 53.6846697,139.453973 53.6446996,139.460019 C53.2135072,138.563956 52.7762586,137.659428 52.3426438,136.763364 C51.9175074,135.866091 51.4766253,134.953098 51.0151525,134.029222 L50.9933506,134.029222 C50.8685955,134.955517 50.7801768,135.870928 50.71356,136.77062 L50.71356,136.77062 Z M40.7973452,132.226211 C40.785233,131.847712 40.7634311,131.517584 40.7585863,131.226151 C40.9778161,131.266057 41.1619208,131.286615 41.2963656,131.285405 C41.4368665,131.285405 41.6100702,131.263639 41.8389898,131.221314 C42.7171205,132.194771 43.5710268,133.145251 44.4322005,134.083639 C45.2848957,135.020817 46.16666,135.974925 47.0593252,136.947172 L47.0544804,135.895114 L47.0496355,134.722129 L47.0447906,133.555191 C47.0338897,133.176692 47.0266224,132.822378 47.0229888,132.504342 C47.0181439,132.17905 47.0084542,131.905757 46.9914972,131.67116 C46.9830187,131.437772 46.9684841,131.280568 46.9600056,131.200757 C47.1743906,131.240663 47.3548616,131.260011 47.4929401,131.258802 C47.633441,131.258802 47.8066447,131.238244 48.0295082,131.19592 C47.9846933,131.928733 47.960469,132.592618 47.9398783,133.17911 C47.9192877,133.771649 47.8974858,134.3267 47.8877961,134.847892 C47.8684166,135.37634 47.8623606,135.891486 47.8611494,136.403004 C47.8514596,136.91694 47.8538821,137.459899 47.8563045,138.040345 L47.8623606,139.484205 C47.7049027,139.468484 47.5438111,139.456392 47.3718186,139.456392 C47.1949813,139.457601 47.0399458,139.470903 46.911557,139.487832 C45.2546153,137.567524 43.5080437,135.629076 41.6609412,133.680954 C41.6391394,133.914342 41.6403506,134.153776 41.6342945,134.379908 C41.6318721,134.616923 41.6330833,134.855148 41.6342945,135.093373 L41.6403506,136.497326 L41.6451955,137.727146 C41.6500403,138.06574 41.6585188,138.348707 41.670631,138.580886 C41.6827431,138.817901 41.687588,139.006546 41.7057562,139.158913 C41.7093898,139.305234 41.7202908,139.421323 41.7287693,139.509599 C41.625816,139.493879 41.5361861,139.481786 41.4417114,139.481786 L41.1716105,139.482995 C40.9838722,139.484205 40.7949227,139.497507 40.6132405,139.514436 C40.6277751,139.453973 40.649577,139.226632 40.6701676,138.825157 C40.6980255,138.434565 40.717405,137.955697 40.7488966,137.386134 C40.7694872,136.821409 40.7900779,136.204685 40.8070349,135.5408 C40.8276255,134.878124 40.8288367,134.237215 40.8264143,133.625328 C40.8239919,133.070277 40.8179358,132.607129 40.7973452,132.226211 L40.7973452,132.226211 Z M36.966273,132.667592 C36.8826992,132.459599 36.779746,132.303604 36.6307665,132.194771 C36.4817871,132.0811 36.2904152,132.012172 36.0518059,131.989196 C35.8144078,131.954127 35.5406733,131.935989 35.2075893,131.937198 C35.1882098,133.03279 35.1857874,134.127172 35.1906323,135.217927 C35.2402921,135.227601 35.285107,135.237275 35.3347668,135.239693 C35.3747369,135.24574 35.4219743,135.24574 35.4546771,135.24574 C35.9803442,135.243321 36.3812563,135.097001 36.6610469,134.810405 C36.9347814,134.525019 37.0752823,134.090894 37.0728599,133.511657 C37.0728599,133.158553 37.0292562,132.875585 36.966273,132.667592 L36.966273,132.667592 Z M35.1930547,135.742747 L35.1954771,136.236126 C35.1978995,136.906057 35.206378,137.497386 35.2269687,138.014951 C35.2451369,138.534934 35.2717836,139.040405 35.3044864,139.537412 C35.1688304,139.521692 35.0210622,139.509599 34.8611819,139.509599 L34.325825,139.512018 L33.784412,139.514436 C33.6281653,139.515645 33.4767634,139.527738 33.3423186,139.545877 C33.3665429,139.04887 33.389556,138.543398 33.406513,138.022206 C33.4198363,137.504642 33.4210476,136.907266 33.4186251,136.244591 L33.4113578,134.595157 C33.4077242,133.928853 33.4016681,133.337524 33.3859223,132.817541 C33.3641205,132.301186 33.3362625,131.783621 33.3071934,131.258802 C33.440427,131.270894 33.5918288,131.285405 33.7480755,131.297498 C33.9067447,131.3108 34.0872157,131.315637 34.2906997,131.314428 C34.5026623,131.314428 34.7509613,131.303544 35.0259071,131.279359 C35.2996416,131.260011 35.6472602,131.247918 36.0481723,131.246709 C36.3485535,131.2455 36.616232,131.253964 36.8257721,131.264848 C37.0437908,131.284196 37.2291066,131.303544 37.3841421,131.337404 C37.5403888,131.368844 37.6699888,131.40875 37.7886878,131.461958 C37.9098093,131.513956 38.021241,131.578047 38.1290391,131.646975 C38.3615924,131.819899 38.5541755,132.038776 38.6958876,132.299977 C38.8412334,132.559968 38.9102726,132.875585 38.9114838,133.231109 C38.9139063,133.824856 38.7528147,134.306143 38.4354765,134.677386 C38.1096597,135.045002 37.6675663,135.314668 37.061959,135.464616 C37.439858,136.149059 37.8662056,136.825037 38.3046653,137.505851 C38.7419138,138.185457 39.1827959,138.859016 39.628523,139.519273 C39.4444183,139.502344 39.267581,139.49146 39.0834763,139.49146 L38.5481194,139.493879 L38.0030728,139.496297 C37.8201794,139.497507 37.6493981,139.510808 37.4543926,139.527738 L35.2996416,135.742747 L35.1930547,135.742747 Z M27.2850338,132.842935 C27.2789778,132.32779 27.2511198,131.809016 27.2147834,131.284196 C27.5757254,131.291452 27.9318225,131.298707 28.284286,131.314428 C28.6415943,131.332567 28.9976914,131.337404 29.356211,131.336194 C29.9436501,131.333776 30.4681061,131.325311 30.9174668,131.309591 C31.381362,131.295079 31.691433,131.27815 31.8549469,131.263639 C31.8149769,131.39303 31.8077096,131.559908 31.8089208,131.76911 C31.8089208,131.898501 31.8173993,132.003707 31.8173993,132.070217 C31.8210329,132.145191 31.8379899,132.225002 31.8585806,132.316906 C31.6248161,132.298767 31.3692498,132.286675 31.0967265,132.267326 C30.8157247,132.255234 30.557736,132.240723 30.29248,132.222584 C30.03328,132.21291 29.801938,132.198398 29.5948203,132.191143 C29.3877026,132.183887 29.2459905,132.177841 29.1515157,132.17905 C29.1272914,132.62164 29.1042783,133.058184 29.097011,133.497146 C29.0933774,133.930062 29.0957998,134.364187 29.097011,134.807987 C29.6154109,134.795894 30.0902071,134.782592 30.5056538,134.766872 C30.9271565,134.749942 31.3619826,134.728175 31.8210329,134.706409 C31.7907526,134.840637 31.776218,134.943424 31.7725843,135.017189 C31.7628946,135.087326 31.7568385,135.16351 31.7580498,135.243321 C31.7580498,135.307412 31.7641058,135.377549 31.7737956,135.445268 C31.7907526,135.515405 31.8028647,135.609728 31.8246666,135.740328 C30.907777,135.6714 30.0066333,135.63875 29.0994335,135.642378 C29.1006447,135.898742 29.0994335,136.151477 29.1006447,136.40905 C29.0921662,136.67146 29.0933774,136.926615 29.0945886,137.181769 C29.097011,137.707798 29.107912,138.204805 29.1297138,138.686091 C29.5839194,138.683673 30.0441809,138.67158 30.4995977,138.644977 C30.9441135,138.62321 31.4128536,138.586932 31.8767488,138.528887 C31.8537357,138.619582 31.8452572,138.698184 31.8379899,138.769531 C31.8283002,138.842086 31.8295114,138.947292 31.8295114,139.071846 C31.8307226,139.200028 31.8307226,139.302815 31.8404124,139.374162 C31.8488909,139.446717 31.8573694,139.505971 31.8803825,139.551923 C31.6599414,139.548296 31.3922629,139.539831 31.082192,139.533784 C30.7636425,139.526529 30.3300276,139.528947 29.7910371,139.531366 L28.5979906,139.536203 L27.8906412,139.539831 C27.7113814,139.539831 27.5708805,139.54104 27.483673,139.549505 C27.3891983,139.55676 27.3104693,139.566434 27.2499086,139.571272 C27.2814002,139.074265 27.3044133,138.568793 27.3080469,138.04881 C27.3298488,137.531246 27.3334824,136.93387 27.3322712,136.269985 L27.3250039,134.62176 C27.3225815,133.954248 27.3116806,133.362918 27.2850338,132.842935 L27.2850338,132.842935 Z M24.1104401,134.268656 C24.4980288,133.237155 24.8383801,132.24435 25.1496623,131.292661 C25.3543576,131.332567 25.5336174,131.351915 25.6753295,131.351915 C25.830365,131.350705 26.0084135,131.330148 26.197363,131.287824 C26.010836,131.760645 25.7722267,132.333836 25.4948585,132.99893 C25.2199128,133.67128 24.9231651,134.382326 24.6252063,135.13086 C24.3308812,135.881812 24.0292887,136.642438 23.7446532,137.417575 C23.4515393,138.187875 23.1862833,138.917061 22.9597861,139.58941 C22.807173,139.57369 22.6242796,139.561597 22.4353301,139.562807 C22.2415358,139.562807 22.0707545,139.576109 21.9060293,139.594248 C21.7897527,139.27863 21.6419845,138.88441 21.4663584,138.428519 C21.2955771,137.972627 21.1042052,137.487712 20.911622,136.968939 C20.7117716,136.456211 20.5070763,135.928973 20.2890577,135.392061 C20.0734614,134.853939 19.8590764,134.331537 19.6568036,133.828484 C19.4593756,133.331477 19.26437,132.862284 19.0887439,132.429368 C18.9131178,131.992824 18.7556598,131.62158 18.6272711,131.320474 C18.8101645,131.333776 18.9954804,131.347078 19.1735289,131.35917 C19.3576336,131.372472 19.5272036,131.377309 19.7113082,131.377309 C19.884512,131.3761 20.0601381,131.368844 20.2333418,131.354333 C20.4077567,131.341031 20.5918613,131.325311 20.7614314,131.312009 C20.8958762,131.758227 21.0557566,132.233467 21.2313827,132.734102 C21.3997416,133.232318 21.5814238,133.738999 21.769162,134.257772 C21.9508442,134.772918 22.147061,135.29532 22.3457002,135.81893 C22.5322273,136.342541 22.7296553,136.854059 22.9173936,137.359531 C23.3304178,136.338913 23.7289074,135.302575 24.1104401,134.268656 L24.1104401,134.268656 Z M16.26298,133.823647 C16.1321688,133.410079 15.9553314,133.058184 15.7252006,132.772798 C15.4987035,132.482575 15.2225465,132.26128 14.9039971,132.101657 C14.5733354,131.946872 14.2196607,131.865851 13.8441842,131.867061 C13.4263151,131.86827 13.0665843,131.972266 12.7407676,132.175422 C12.4234293,132.370114 12.1545397,132.63857 11.9328874,132.982001 C11.7100239,133.323013 11.5380314,133.714814 11.4253884,134.170705 C11.310323,134.631434 11.2533959,135.117558 11.2558183,135.627867 C11.259452,136.271194 11.3309137,136.815362 11.4726258,137.256743 C11.6119155,137.702961 11.7935977,138.056066 12.0249397,138.322103 C12.2562817,138.591769 12.5215377,138.784042 12.8207078,138.904968 C13.1271451,139.027103 13.4517506,139.085148 13.7836235,139.08273 C14.1433542,139.08152 14.4897616,139.004127 14.8167896,138.845714 C15.1389727,138.693347 15.428453,138.457541 15.6646399,138.141923 C15.9068828,137.829934 16.0970435,137.429668 16.2496566,136.945963 C16.3901575,136.463467 16.4616192,135.890277 16.4591967,135.231229 C16.4567743,134.706409 16.3889463,134.239633 16.26298,133.823647 L16.26298,133.823647 Z M9.61825602,133.840577 C9.83142981,133.320594 10.1390784,132.857446 10.5387792,132.465645 C10.9372689,132.06417 11.4156987,131.755808 11.981336,131.527258 C12.5469732,131.301126 13.17196,131.187455 13.8684085,131.183827 C14.5042962,131.181409 15.1086923,131.269685 15.6501053,131.440191 C16.2108977,131.613115 16.6856939,131.875525 17.0975069,132.229839 C17.498419,132.582944 17.8266582,133.030371 18.062845,133.572121 C18.3002431,134.115079 18.423787,134.749942 18.4262094,135.471872 C18.4298431,136.077712 18.3123553,136.63881 18.0870693,137.16363 C17.865417,137.686031 17.5480788,138.144342 17.1495891,138.537352 C16.7498883,138.926735 16.2714585,139.23026 15.7082436,139.451555 C15.1498736,139.675268 14.5394214,139.784102 13.876887,139.78652 C13.2446329,139.790148 12.6462928,139.717592 12.0988238,139.560388 C11.5465099,139.40923 11.0559679,139.152867 10.6405213,138.805808 C10.2335531,138.459959 9.90168026,138.014951 9.66791582,137.469573 C9.41961681,136.930242 9.30212898,136.27845 9.29849533,135.522661 C9.29607291,134.930122 9.39660373,134.370234 9.61825602,133.840577 L9.61825602,133.840577 Z M6.49574449,132.297558 C6.10452214,132.079891 5.63820448,131.969848 5.09073543,131.972266 C4.72494858,131.973476 4.36158417,132.050868 3.99579733,132.215328 C3.62758806,132.371323 3.31267223,132.610757 3.03772649,132.927584 C2.75187982,133.237155 2.52417145,133.628956 2.35096775,134.105405 C2.1741304,134.572181 2.08450051,135.128441 2.08692294,135.764513 C2.08934537,136.247009 2.16322947,136.694436 2.29161823,137.104376 C2.43090792,137.514316 2.61259013,137.865002 2.85967793,138.173364 C3.11645545,138.468424 3.42289277,138.70544 3.78504597,138.86869 C4.13750945,139.039196 4.54932245,139.122635 4.99989432,139.120217 C5.11859337,139.120217 5.23244755,139.112961 5.36204752,139.092404 C5.49406993,139.086357 5.62003626,139.073055 5.74600259,139.058544 C5.8707577,139.041615 5.97976703,139.013802 6.08150906,138.987198 C6.18809596,138.963013 6.2656137,138.932781 6.31042864,138.891666 C6.32980808,138.800971 6.32859686,138.677627 6.33828658,138.531306 L6.33707537,138.046392 C6.33465294,137.401855 6.32132957,136.914522 6.30073892,136.60616 C6.27651463,136.297798 6.25834641,136.087386 6.25229034,135.970088 C6.32859686,135.984599 6.43760619,135.99911 6.57326223,136.012412 C6.70165099,136.018458 6.89544535,136.028133 7.14374436,136.026923 C7.42837982,136.025714 7.64155361,136.014831 7.77478723,136.007575 C7.92013299,135.991855 8.0279311,135.977344 8.10423763,135.961623 C8.08849184,136.03176 8.08606941,136.128501 8.07032362,136.273613 C8.0521554,136.419934 8.04246568,136.592858 8.03640961,136.777875 C8.03277596,136.96652 8.02308624,137.168467 8.02429746,137.382507 C8.02066381,137.596546 8.02187503,137.799702 8.02308624,137.989556 L8.02429746,138.386194 C8.02550867,138.594187 8.02671989,138.775577 8.0279311,138.946083 C8.03156475,139.125054 8.04246568,139.248398 8.05336661,139.320954 C7.53012186,139.474531 7.00082103,139.596666 6.46183048,139.687361 C5.92283993,139.775637 5.39475032,139.822798 4.86302706,139.825217 C4.18716925,139.828844 3.55491517,139.740568 2.97353211,139.566434 C2.39336027,139.385045 1.8943398,139.119007 1.47768194,138.77074 C1.05254558,138.427309 0.729151256,138.002858 0.486908313,137.50827 C0.253143874,137.013681 0.128388759,136.45863 0.125966329,135.839488 C0.122332685,135.075234 0.247087801,134.401675 0.494175602,133.828484 C0.742474617,133.249248 1.0949381,132.775217 1.53097539,132.385834 C1.97185755,132.000079 2.4951023,131.713484 3.10192087,131.517584 C3.70873944,131.324102 4.36521782,131.223733 5.05924385,131.221314 C5.66848485,131.218896 6.19294081,131.275731 6.64109026,131.399076 C7.07833877,131.524839 7.51679849,131.707438 7.94677972,131.937198 C7.88621898,132.142772 7.82444703,132.351975 7.75904144,132.553922 C7.70453677,132.757078 7.65851062,132.959025 7.61854053,133.169436 L7.4513929,133.170645 C7.19824903,132.807867 6.88091077,132.520062 6.49574449,132.297558 L6.49574449,132.297558 Z M129.153036,106.825654 C126.896543,107.670928 123.488185,108.413416 123.488185,108.413416 C123.488185,108.413416 122.216409,104.338201 122.279392,104.029839 C122.339953,103.723896 122.90559,102.822995 123.721949,102.533982 C124.545575,102.251014 126.316371,102.136134 128.139249,103.041872 C129.891877,103.911332 132.69705,105.130268 132.953828,105.190731 C133.21545,105.25845 133.360796,105.297146 133.360796,105.297146 C133.360796,105.297146 129.573327,106.672078 129.153036,106.825654 L129.153036,106.825654 Z M104.427299,108.14375 C104.397018,108.121983 104.320712,107.945431 104.380061,107.878922 C104.455157,107.814831 104.835478,106.91393 105.880756,107.147318 C105.904981,107.147318 107.175545,107.610465 107.610371,108.541597 C107.610371,108.541597 105.19642,108.779822 104.427299,108.14375 L104.427299,108.14375 Z M139.368421,103.876263 C138.25047,103.744453 134.687076,102.964479 130.832991,100.964359 C126.961948,98.9654483 124.952543,99.5132441 124.893194,99.5350109 C121.146907,100.50363 121.099669,104.719119 121.140851,105.272961 C121.168709,105.829222 121.849411,108.34086 121.849411,108.34086 C121.849411,108.34086 121.533284,108.256211 121.486047,108.256211 C118.70752,107.119505 116.917345,104.051606 116.652089,103.639248 C114.307177,99.7055169 109.416292,94.6350795 108.963298,94.130817 C108.505459,93.6326009 104.301332,89.702498 104.301332,89.702498 L106.796435,88.3638445 C114.474325,85.0226523 121.959632,82.8544448 125.743466,82.3199508 C128.412984,81.9414516 128.075055,83.7759028 127.935765,83.9621292 C127.797687,84.1423093 126.546502,86.352841 126.370876,86.6261343 C126.192827,86.9054739 124.5807,90.2103882 124.237927,91.2285872 C123.695302,92.817558 123.909687,93.2105683 123.909687,93.2105683 C123.909687,93.2105683 124.423242,92.1851138 124.423242,92.1427896 C125.165717,90.3313145 126.621597,87.7277724 127.853403,85.569239 C128.631002,84.2027724 129.598763,82.9451395 129.694449,80.7878153 C129.796191,78.5760743 123.91211,79.8941703 123.826114,79.9389131 C112.037361,82.8060743 103.693303,87.2718805 103.693303,87.2718805 L102.798215,88.9757313 L102.165961,91.0423608 C102.165961,91.0423608 104.728891,94.148956 104.771284,94.148956 C108.374648,98.4744877 112.976052,105.818338 113.006333,105.953776 C113.104441,106.286323 113.317615,106.623707 113.137144,106.834119 C112.759245,107.293639 110.203582,108.102635 110.203582,108.102635 L109.969817,107.707206 C106.081818,100.654788 103.05257,106.587429 102.964151,106.956254 C101.807441,109.302224 103.030768,110.32405 103.030768,110.37363 C104.59808,112.486211 108.670184,111.0617 108.810685,111.245508 C108.949975,111.426898 109.18495,112.118596 109.18495,112.164548 C103.835015,118.087515 98.1919655,119.515654 97.202403,119.600302 C91.5678322,120.024754 91.8645798,115.255422 92.0450508,113.597524 C92.2037199,112.090783 93.3253048,108.594805 93.3253048,108.594805 L92.8044824,109.097858 C92.8044824,109.097858 92.7378656,109.246597 92.553761,109.564633 C91.3037874,111.96381 90.9985613,115.265097 91.0009837,115.722198 C90.9501127,124.041923 97.5936254,123.876254 102.817594,120.209771 C108.189332,116.441709 108.956031,115.101846 109.624621,114.07881 C110.1515,113.256512 110.416756,110.715851 110.416756,110.715851 L112.481877,109.790766 C112.481877,109.790766 113.750018,108.793124 113.975304,106.674496 C114.217547,104.557078 113.591349,103.411906 113.591349,103.411906 L113.620418,103.102335 C113.620418,103.102335 115.078721,105.578904 117.521741,108.670989 C119.95386,111.76791 122.642757,111.500663 122.642757,111.500663 L122.840185,113.491109 L123.06426,113.424599 C123.06426,113.424599 123.146622,113.402832 123.356162,112.913081 C123.556013,112.430585 123.592349,111.321692 123.592349,111.321692 C123.592349,111.321692 124.277897,111.14393 124.293642,111.164488 C126.861418,110.720688 133.615151,107.199316 136.253177,106.704728 C137.437745,106.487061 139.049871,106.725285 139.049871,106.725285 L140.345871,103.941563 C140.321647,103.957284 140.171456,103.973004 139.368421,103.876263 L139.368421,103.876263 Z M99.934903,90.0870434 C98.5686532,90.3446163 81.4868922,97.1769491 81.4868922,97.1769491 L82.0416285,95.6460229 C82.0416285,95.6460229 87.8615152,93.0751309 90.9731258,91.9589817 C94.0786803,90.8416232 101.054066,88.3565889 101.054066,88.3565889 C101.054066,88.3565889 99.907045,90.0580211 99.934903,90.0870434 L99.934903,90.0870434 Z M40.6205078,102.71779 C40.2753116,103.448184 40.07425,103.866589 39.6939286,105.112129 C39.3608445,106.768819 40.4291359,106.79905 40.5005976,106.774865 C40.5720592,106.753098 40.5853826,106.786958 40.8094573,106.528175 C40.9269451,106.39032 40.8651732,106.014239 41.1934124,105.71676 C41.377517,105.558347 41.3884179,105.780851 41.3884179,105.780851 C41.4017413,106.067446 41.1534423,106.599522 41.1534423,106.612824 C40.5018088,108.265886 39.7750799,107.926083 39.7750799,107.926083 C39.7750799,107.926083 38.6220035,107.556049 39.1222352,105.485791 C39.5946089,103.489299 40.4533602,102.358639 40.5647919,102.206272 C40.6883358,102.056323 40.9572255,101.953536 40.9572255,101.953536 C40.9572255,101.953536 40.6205078,102.693604 40.6205078,102.71779 L40.6205078,102.71779 Z M90.9828155,97.4538702 C90.641253,98.1915203 90.4450362,98.6099251 90.0562362,99.8518376 C89.721941,101.512155 90.7950772,101.53634 90.8653277,101.515783 C90.940423,101.495225 90.9537463,101.526666 91.1778211,101.269093 C91.2989425,101.132446 91.2286921,100.753947 91.5641986,100.458887 C91.7398247,100.298055 91.7519368,100.522978 91.7519368,100.522978 C91.7652602,100.807155 91.5266509,101.348904 91.5266509,101.351323 C90.8665389,103.008013 90.1434437,102.663373 90.1434437,102.663373 C90.1434437,102.663373 88.9964234,102.300594 89.4833317,100.2255 C89.9581279,98.231426 90.8217239,97.0971378 90.9343669,96.9471892 C91.053066,96.7936129 91.3207444,96.6944534 91.3207444,96.6944534 C91.3207444,96.6944534 90.9828155,97.4308942 90.9828155,97.4538702 L90.9828155,97.4538702 Z M114.851013,92.1367433 L114.853435,92.5091961 C114.853435,92.5091961 114.336246,92.0871635 113.64222,91.8840074 C113.619207,91.886426 113.469017,91.8054054 113.469017,91.7727553 C113.469017,91.7425237 113.596194,90.4921464 113.696725,90.3869405 C113.794833,90.2793162 114.044344,90.1414603 114.131551,90.140251 C114.21028,90.140251 115.678272,90.7243248 116.36382,93.4415374 C116.373509,93.4415374 116.678736,94.6955426 116.678736,94.6955426 L116.761098,93.9772407 C116.761098,93.9772407 117.067536,90.964968 117.123251,90.6820006 C117.20198,90.3010829 117.487827,89.6190589 117.962623,89.6142218 C118.431363,89.6033385 119.271946,90.4002424 119.271946,90.4002424 L118.858922,91.5018805 C118.858922,91.5018805 118.191543,90.8996678 117.92992,90.8815289 C117.373973,90.8488788 117.272231,91.7727553 117.146264,93.352052 C117.005764,94.9349766 116.907655,95.291709 116.811969,95.5275151 C116.706594,95.7717862 116.593951,95.9483385 116.593951,95.9483385 C116.081607,93.3568891 114.877659,92.1065117 114.877659,92.1065117 L114.851013,92.1367433 Z M90.4099109,84.965817 L90.4111222,85.3334328 C90.4111222,85.3334328 89.8902998,84.9174465 89.1914289,84.7046163 C89.1732607,84.7142904 89.027915,84.6308513 89.027915,84.601829 C89.027915,84.5643419 89.1526701,83.3200108 89.2519897,83.2099679 C89.344042,83.1083899 89.5959747,82.970534 89.6843933,82.970534 C89.7606999,82.970534 91.2274809,83.5497707 91.9130284,86.2718204 C91.9299854,86.2718204 92.2230994,87.5270349 92.2230994,87.5270349 L92.3199965,86.8026866 C92.3199965,86.8026866 92.6191666,83.7940417 92.6797273,83.5062372 C92.7536114,83.1241103 93.0430917,82.4553882 93.5094094,82.440877 C93.9902616,82.4324122 94.8235773,83.2305254 94.8235773,83.2305254 L94.415398,84.329745 C94.415398,84.329745 93.7480187,83.7299508 93.49003,83.7081841 C92.9292375,83.675534 92.8347628,84.6006197 92.6918395,86.1762887 C92.5573946,87.758004 92.4483853,88.1159457 92.3611778,88.3553796 C92.2545909,88.5972321 92.1407368,88.7798308 92.1407368,88.7798308 C91.6320266,86.1883813 90.4256567,84.9307484 90.4256567,84.9307484 L90.4099109,84.965817 Z M131.680841,89.2272579 C131.680841,89.2272579 130.704602,88.3686815 130.559256,88.2755683 C130.323069,88.1244105 130.323069,87.8801395 130.323069,87.8801395 C131.266606,87.2259285 131.659039,87.6310314 131.788639,87.9212544 C132.026037,88.4509114 131.680841,89.2272579 131.680841,89.2272579 L131.680841,89.2272579 Z M132.141103,89.504179 C133.17548,87.1291875 132.349432,86.6079954 132.147159,86.4713487 C131.652983,86.1496849 131.048587,86.5596249 130.489006,87.0058427 C129.867653,87.5004311 129.529724,88.0421807 129.630255,88.8052253 C129.72594,89.5053882 130.905664,90.259968 131.095824,90.3772664 C131.115204,90.3869405 131.122471,90.3905683 131.122471,90.3905683 L131.156385,90.407498 C130.651309,91.1016146 128.62858,93.0485272 126.580416,94.4246678 C125.289261,95.3050109 121.776738,97.7465117 121.776738,97.7465117 C121.776738,97.7465117 122.567662,97.4502424 122.679093,97.3704311 C123.169635,97.1370434 125.432184,95.8370863 127.327735,94.7185186 C129.240243,93.5951138 131.461611,90.6578153 131.461611,90.6578153 C131.461611,90.6578153 131.577888,90.7376266 131.592422,90.7219062 C131.998179,90.8948308 132.419682,91.7497793 132.419682,91.7497793 C132.419682,91.7497793 132.419682,91.8501481 132.540803,91.669968 C132.674037,91.4970434 132.773357,90.5078668 132.772145,90.2515031 C132.770934,90.0036043 132.141103,89.504179 132.141103,89.504179 L132.141103,89.504179 Z M82.2911387,82.3066489 C82.2911387,82.3066489 81.0581222,81.2352424 80.8764399,81.122781 C80.583326,80.929299 80.5821148,80.6233556 80.5821148,80.6233556 C81.7666828,79.8058942 82.2596471,80.3198307 82.4158938,80.6753539 C82.710219,81.3331926 82.2911387,82.3066489 82.2911387,82.3066489 L82.2911387,82.3066489 Z M82.8652545,82.6476609 C84.1491421,79.6825494 83.122032,79.0380125 82.8640433,78.865088 C82.2523799,78.4563573 81.491737,78.9739216 80.7989222,79.5277638 C80.0164775,80.1529525 79.6034533,80.8301395 79.7233635,81.7794105 C79.8335841,82.6609628 81.3185333,83.5969319 81.5559314,83.7384156 C81.5765221,83.7553453 81.5850006,83.7650194 81.5850006,83.7650194 L81.6225482,83.7855769 C80.9915053,84.6538273 78.4697563,87.085654 75.9153045,88.804016 C74.2886431,89.89598 69.9064683,92.9626695 69.9064683,92.9626695 C69.9064683,92.9626695 70.8960307,92.5853796 71.0280531,92.4898479 C71.6481951,92.1947879 74.4751702,90.5731669 76.8503622,89.1692133 C79.2303992,87.7676781 82.0186154,84.0999851 82.0186154,84.0999851 C82.0186154,84.0999851 82.1603275,84.1979354 82.1809182,84.1761686 C82.6738826,84.3914173 83.2080283,85.4676609 83.2080283,85.4676609 C83.2080283,85.4676609 83.2080283,85.5885872 83.3654862,85.3648736 C83.5253665,85.1496249 83.6598114,83.9125494 83.6586001,83.5969319 C83.6573889,83.2776866 82.8652545,82.6476609 82.8652545,82.6476609 L82.8652545,82.6476609 Z M65.4152842,81.5895563 C65.4152842,81.5895563 64.1931685,80.514522 64.0126975,80.4008513 C63.7268509,80.2146249 63.7256396,79.9086815 63.7256396,79.9086815 C64.906574,79.0827552 65.3886374,79.5966918 65.5448841,79.961889 C65.8379981,80.6197278 65.4152842,81.5895563 65.4152842,81.5895563 L65.4152842,81.5895563 Z M65.9918224,81.9329868 C67.2878221,78.9630383 66.2570784,78.3160829 65.995456,78.1419491 C65.3813701,77.7416832 64.6219385,78.2592475 63.9242789,78.8094619 C63.1406229,79.4310228 62.7263875,80.1070005 62.8438753,81.0598993 C62.9649968,81.9426609 64.4487348,82.87863 64.681288,83.0261601 C64.7055123,83.0406712 64.7139908,83.044299 64.7139908,83.044299 L64.7575946,83.0696935 C64.1229181,83.9294791 61.5999578,86.3637244 59.0418723,88.0869234 C57.4188446,89.1813059 53.0390922,92.2359028 53.0390922,92.2359028 C53.0390922,92.2359028 54.0274434,91.868287 54.171578,91.7642904 C54.780819,91.481323 57.6090053,89.8548651 59.981775,88.4521206 C62.3666567,87.053004 65.154873,83.3792647 65.154873,83.3792647 C65.154873,83.3792647 65.2941627,83.4796335 65.3099085,83.4602853 C65.8004504,83.6731155 66.339441,84.7469405 66.339441,84.7469405 C66.339441,84.7469405 66.339441,84.8654482 66.4968989,84.6453625 C66.6579905,84.426486 66.7863792,83.191829 66.785168,82.8774208 C66.7839568,82.5545477 65.9918224,81.9329868 65.9918224,81.9329868 L65.9918224,81.9329868 Z M53.647122,81.2775666 C53.647122,81.2775666 34.0290773,88.2332441 33.1521579,88.5657913 C32.2825057,88.8971292 13.4771861,95.9906627 13.4771861,95.9906627 L15.0481316,93.227498 C15.0481316,93.227498 26.0217369,88.6516489 33.5554924,86.0868033 C41.0807694,83.5207484 54.8704489,78.8481583 54.8704489,78.8481583 L53.647122,81.2775666 Z M35.533406,95.5202596 C37.806856,95.5480726 38.2889195,96.4139045 38.3664372,96.4731584 C38.4475886,96.5324122 38.4475886,96.6509199 38.3494802,96.9133299 C38.2550055,97.1769491 36.8705871,99.4201309 35.7514247,100.278707 C34.8611819,100.691066 31.2081583,100.96315 31.2081583,100.96315 C31.2081583,100.96315 31.2880985,100.768458 31.466147,100.699531 C32.4448085,100.34038 35.6811742,98.9315889 35.6811742,98.9315889 C35.6811742,98.9315889 36.0941984,98.6607141 35.6908639,98.5216489 C35.2039556,98.3547707 31.3014218,98.3293762 31.3014218,98.3293762 L31.3002106,98.2471464 L32.8651,95.6109543 C32.8651,95.6109543 33.2660121,95.4888187 35.533406,95.5202596 L35.533406,95.5202596 Z M49.8814555,89.5767347 C49.8814555,89.5767347 51.9926027,92.8610915 52.1258363,93.1791275 C52.2687597,93.4983728 52.8150175,94.0981669 52.7362886,96.342558 C52.7944269,99.185534 50.2520872,100.757575 50.1576124,100.66688 C50.4277133,100.756366 53.0778511,101.479505 53.6253202,101.614942 C54.1618883,101.747961 55.0000489,102.554539 54.8958844,103.534042 C54.9939928,104.314016 53.5078323,107.166666 53.3273613,107.396426 C50.335661,110.922635 40.7476854,113.596314 36.7979142,114.302524 C32.8348196,115.003896 24.1988588,115.459788 19.8215288,114.465774 C9.84838681,112.214127 5.78233903,108.695174 5.55341945,108.472669 C5.32571108,108.239282 0.736418544,101.477086 0.736418544,101.477086 L0,99.8264431 L1.5648894,101.512155 C1.5648894,101.512155 4.58081403,104.207601 4.94538966,104.57038 C8.77161694,107.737438 14.1130739,109.492078 14.2983897,109.579145 C25.5929669,113.753519 38.2828634,111.038724 39.1452483,110.894822 C48.6811417,108.729033 52.9494624,105.344308 52.9494624,105.344308 C52.9494624,105.344308 52.885268,104.765071 52.2530139,104.476057 C51.9780682,104.24146 50.3078031,103.882309 49.2213435,103.558227 C48.0016503,103.200285 46.1036768,102.42273 45.9789217,102.312687 C45.8541666,102.199016 44.355894,101.654848 44.355894,101.654848 L45.6458376,99.1008856 L47.0375233,99.0585615 C49.2988612,98.8203368 51.2586066,97.5578668 51.3094776,97.5203796 C51.3482365,97.4865203 51.4160645,97.3341532 51.4160645,97.3111772 C51.3991075,96.5009714 51.0357431,96.0438702 51.0357431,96.0184757 C50.6929693,95.5275151 48.8955267,92.3338531 48.5745548,91.8005683 C48.2499493,91.2564002 47.6273849,89.4364603 47.5753027,89.264745 C47.5111083,89.0930297 46.8546299,88.7205769 46.8546299,88.7205769 L47.7848428,85.5160314 C47.7848428,85.5160314 50.7486852,88.2308256 50.9509581,88.4593762 C51.2259038,88.7786215 51.193201,89.0374037 51.193201,89.0374037 L49.6646481,88.9829868 L49.7252088,89.2320949 L49.8814555,89.5767347 Z M75.1086355,99.1323265 L76.5015324,96.3328839 L79.3866459,98.3753282 L77.9913265,101.276349 L75.1086355,99.1323265 Z M70.5157093,99.7502596 L71.9049726,96.9617004 L74.7876636,98.9968891 L73.3874994,101.89791 L70.5157093,99.7502596 Z M34.0024306,119.869968 L35.3856378,117.075362 L38.2768073,119.117807 L36.881488,122.016409 L34.0024306,119.869968 Z M29.4082932,120.496366 L30.7902892,117.700551 L33.6838812,119.741786 L32.2885618,122.640388 L29.4082932,120.496366 Z M56.2354879,104.149556 L57.6235399,101.354951 L60.5050197,103.399814 L59.1109116,106.292369 L56.2354879,104.149556 Z M60.7072926,96.1829354 C62.1401596,97.8843676 65.7786486,99.6994705 67.1388427,100.363356 C68.511149,101.018776 68.9326517,101.327138 69.6085095,101.969256 C70.6174513,102.957224 70.3933766,105.217335 70.3691523,105.470071 C70.3267598,105.880011 70.2359187,106.923604 69.6327338,107.753158 C68.2035004,109.680723 58.5162052,115.661735 55.7110319,116.954436 C53.2789128,118.070585 51.9429429,118.518013 50.6142404,117.286983 C49.2746369,116.054745 49.9783527,112.426958 50.5258217,111.044771 C51.5056944,108.026452 52.2627036,107.184805 52.2627036,107.184805 L52.0240943,108.166726 C52.0240943,108.166726 51.6607299,109.091812 51.6607299,109.086975 C50.4289245,112.370122 50.5573133,113.483853 51.1835113,114.55526 C51.9344644,115.815311 54.8789274,114.437961 54.9806694,114.393218 C58.1056034,112.986846 65.4504094,108.198167 65.9530635,107.857155 C67.5397548,106.773656 69.4219824,105.218544 69.4219824,105.218544 C69.4219824,105.218544 68.9011601,104.161649 67.1860801,103.681572 C62.6173782,101.849539 60.3863207,99.5785443 59.8424853,99.0392133 C59.276848,98.4877896 57.9202875,96.5565975 57.7495063,96.3038616 C57.5738801,96.0547536 56.8762204,96.0112201 56.8762204,96.0112201 C56.8762204,96.0112201 57.3776633,92.8078839 57.4067325,92.8006284 C58.1056034,93.029179 60.9422682,94.762052 61.155442,94.8696764 C61.5224401,95.1054826 61.6169148,95.4368205 61.6169148,95.4368205 L61.1578644,95.4561687 L60.1125862,95.4718891 L60.1695132,95.655697 L60.7072926,96.1829354 Z M97.4216329,107.396426 C97.3525937,107.362567 95.1893642,106.682961 94.6358391,105.757875 C94.6358391,105.757875 96.5313901,103.463904 97.5778796,107.395217 C97.5960478,107.425448 97.4870385,107.426657 97.4216329,107.396426 L97.4216329,107.396426 Z M97.1563769,102.232875 C95.317753,101.86526 93.6559664,104.719119 93.6559664,104.719119 C93.6559664,104.719119 93.3846543,104.530474 93.3337833,104.558287 C93.2744337,104.581263 92.0147704,106.189582 91.8137088,106.453201 C89.8709204,109.131717 87.9099638,108.819728 87.8966404,108.83182 C84.2702636,108.891074 83.0723722,105.645414 82.9839535,105.513604 C82.1651724,103.742035 82.0392061,103.871426 81.8284547,103.744453 C81.542608,103.576366 80.4622045,103.692455 78.9033712,105.037155 C77.3336369,106.412086 76.0957755,110.044711 76.0836633,110.093081 C74.1893235,116.433244 73.2930246,116.274831 72.5880977,116.26032 C71.8807483,116.239762 71.298154,115.421091 70.70587,114.288013 C70.1063187,113.148887 69.7829244,110.227309 69.7889805,109.038604 C69.7950366,107.843853 69.8967786,107.391589 69.7817132,107.402472 C69.6727039,107.413356 69.4159264,107.857155 69.357788,108.172772 C69.0440834,109.843973 69.3226628,112.049668 69.323874,112.217755 C69.4425731,114.313407 70.8076121,118.22779 72.6619818,118.233836 C74.5187739,118.237464 75.2721495,115.45616 75.4380859,115.000268 C75.8062952,113.978441 76.3331736,111.544196 77.4608145,109.093021 C78.5448516,106.715611 80.7480512,106.681752 80.9479016,106.75068 C81.158653,106.817189 83.2431535,111.60345 86.7738444,111.796932 C90.3118025,111.990414 91.4963705,109.068836 91.7858509,108.530714 C92.080176,107.992592 92.3805573,107.851109 92.458075,107.768879 C92.5331703,107.690277 92.7584563,107.895851 92.7584563,107.887386 C93.3519515,108.969676 97.5245862,111.293879 98.3663804,110.484882 C99.2227092,109.674676 99.7665446,108.033707 99.7919801,107.643115 C99.8162044,107.259779 98.9853111,102.6017 97.1563769,102.232875 L97.1563769,102.232875 Z"/>
</svg>
