<?xml version="1.0" encoding="utf-8"?>
<!-- Generator: Adobe Illustrator 22.0.1, SVG Export Plug-In . SVG Version: 6.00 Build 0)  -->
<svg version="1.1" id="Ebene_1" xmlns="http://www.w3.org/2000/svg" xmlns:xlink="http://www.w3.org/1999/xlink" x="0px" y="0px"
	 width="330px" height="135px" viewBox="0 0 330 135" enable-background="new 0 0 330 135" xml:space="preserve">
<g>
	<g>
		<path fill="#1D1D1B" d="M18.4,135c2.4-1.6,4.5-4,4.5-6.1c0-3.6,0-10.6,0-14.2c0-1.6-0.9-2.8-2.4-3.1c-1.2-0.3-2.2,0.1-3,0.8
			c-0.1,0-0.1,0.2-0.1,0.3c0.3,1.9,0.7,3.7,1,5.6c0.4,2.3,0.4,4.6-0.4,6.8c-1.1,3-3.1,5-6.3,5.5c-3,0.5-5.7-0.2-8.1-2.2
			c-1.2-1.1-1.8-2.5-2-4.1c0,0-0.3-3.1,0.7-6.2s-2.3-4-2.3-4c0.7-0.4,2.2-1.7,3-1.7c1.6,0,3,0.4,4.3,1.4c1.2,0.9,2,2.1,2.2,3.6
			c0.1,0.9,0,1.8-0.3,2.6c-0.3,0.9-0.7,1.7-1.1,2.6c-0.5,1.1-1.1,2.2-1.3,3.4c-0.1,0.6-0.2,1.2-0.1,1.7c0.2,0.8,0.6,1.4,1.3,1.8
			c1.7,1.1,4.3,0.9,5.7-0.6c0.7-0.7,1-1.6,1.1-2.5c0.2-2-0.2-3.8-0.9-5.6c-0.7-1.7-1.6-3.2-2.6-4.6s-1.8-2.8-2.6-4.3
			c-1.3-2.7-0.9-5.2,1.1-7.5c1.1-1.2,2.3-2.2,3.6-3.1c1.7-1.2,3.5-2.4,5.2-3.6c1.5-1.1,3-2.2,4.3-3.7l9,1.5c0,0,0.1,0.1,0.2,0.1v0.1
			c-1.6,1.9-3.3,3.6-5.4,5.1c-1.2,0.9-2.5,1.5-4,1.7c-2.1,0.3-4.2-0.7-5.2-2.5c0,0,0-0.1-0.1-0.1c-0.3,0.1-0.5,0.4-0.7,0.6
			c-0.5,0.9-0.8,1.9-0.8,2.9c0,1.5,0.2,3,0.5,4.5c0.2,1.2,0.5,2.5,0.7,3.7v0.1c0.1-0.1,0.2-0.2,0.3-0.2c2.1-2,4.1-4,6.1-5.9
			c0.1-0.1,0.2-0.2,0.4-0.1c1.5,0.5,2.9,1.2,4.1,2.3c1,1,1.5,2.2,1.5,3.6c0,3.7-0.1,7.3-0.1,11c0,1.2-0.3,5.5-0.9,6.5
			C26.2,135,21,135,18.4,135 M14.1,93.3c0,0.1,0.1,0.1,0.1,0.2 M1.8,96c1.1,0.3,5.5,1.9,6.5,2.4c0.8,0.4,1.6,0.8,2.5,1.1
			c1.3,0.5,2.6,0.5,3.9,0c1.1-0.4,2.1-1.1,2.9-1.9c0.3-0.3,0.6-0.7,0.8-1.1c-0.8,0-1.5,0-2-0.1c-0.7-0.1-1.4-0.5-2-0.8
			c-1.2-0.7-2.4-1.4-3.6-2.1c-1.6-0.9-3.3-1.2-5.1-0.8C3.9,93.1,2.5,94.2,1.8,96"/>
	</g>
	<g>
		
			<linearGradient id="SVGID_1_" gradientUnits="userSpaceOnUse" x1="13.3737" y1="48.2558" x2="19.0434" y2="58.0761" gradientTransform="matrix(1 0 0 -1 0 136.5512)">
			<stop  offset="0" style="stop-color:#DEB06D"/>
			<stop  offset="0.2777" style="stop-color:#DBAE6B"/>
			<stop  offset="0.4865" style="stop-color:#D1A663"/>
			<stop  offset="0.6729" style="stop-color:#C19956"/>
			<stop  offset="0.845" style="stop-color:#AB8644"/>
			<stop  offset="1" style="stop-color:#8F702E"/>
		</linearGradient>
		<circle fill="url(#SVGID_1_)" cx="16.2" cy="83.4" r="5.7"/>
		
			<linearGradient id="SVGID_2_" gradientUnits="userSpaceOnUse" x1="21.0953" y1="50.3249" x2="11.275" y2="55.9947" gradientTransform="matrix(1 0 0 -1 0 136.5512)">
			<stop  offset="0" style="stop-color:#DEB06D;stop-opacity:0"/>
			<stop  offset="0.2674" style="stop-color:#DFB270;stop-opacity:0.2674"/>
			<stop  offset="0.4685" style="stop-color:#E2B87A;stop-opacity:0.4685"/>
			<stop  offset="0.6479" style="stop-color:#E6C18A;stop-opacity:0.6479"/>
			<stop  offset="0.8147" style="stop-color:#EDCFA1;stop-opacity:0.8147"/>
			<stop  offset="0.9713" style="stop-color:#F5E0BE;stop-opacity:0.9713"/>
			<stop  offset="1" style="stop-color:#F7E4C4"/>
		</linearGradient>
		<circle fill="url(#SVGID_2_)" cx="16.2" cy="83.4" r="5.7"/>
		
			<linearGradient id="SVGID_3_" gradientUnits="userSpaceOnUse" x1="429.9049" y1="679.9417" x2="421.888" y2="687.9586" gradientTransform="matrix(0 1 1 0 -667.7416 -342.505)">
			<stop  offset="0" style="stop-color:#DEB06D;stop-opacity:0"/>
			<stop  offset="0.2674" style="stop-color:#DFB270;stop-opacity:0.2674"/>
			<stop  offset="0.4685" style="stop-color:#E2B87A;stop-opacity:0.4685"/>
			<stop  offset="0.6479" style="stop-color:#E6C18A;stop-opacity:0.6479"/>
			<stop  offset="0.8147" style="stop-color:#EDCFA1;stop-opacity:0.8147"/>
			<stop  offset="0.9713" style="stop-color:#F5E0BE;stop-opacity:0.9713"/>
			<stop  offset="1" style="stop-color:#F7E4C4"/>
		</linearGradient>
		<circle fill="url(#SVGID_3_)" cx="16.2" cy="83.4" r="5.7"/>
		
			<linearGradient id="SVGID_4_" gradientUnits="userSpaceOnUse" x1="-610.2917" y1="742.8712" x2="-598.9541" y2="742.8712" gradientTransform="matrix(-0.5732 -0.8194 -0.8194 0.5732 278.3271 -837.8586)">
			<stop  offset="0" style="stop-color:#DEB06D;stop-opacity:0"/>
			<stop  offset="0.3901" style="stop-color:#DCAE6B;stop-opacity:0.3901"/>
			<stop  offset="0.5716" style="stop-color:#D4A966;stop-opacity:0.5716"/>
			<stop  offset="0.7098" style="stop-color:#C89F5D;stop-opacity:0.7098"/>
			<stop  offset="0.8262" style="stop-color:#B5904F;stop-opacity:0.8262"/>
			<stop  offset="0.9278" style="stop-color:#9E7E3E;stop-opacity:0.9278"/>
			<stop  offset="1" style="stop-color:#886D2E"/>
		</linearGradient>
		<circle fill="url(#SVGID_4_)" cx="16.2" cy="83.4" r="5.7"/>
	</g>
</g>
</svg>
