<svg viewBox="0 0 79 79">
    <g class="fill">
        <path d="M39.5 78.1C18.2 78.1.9 60.8.9 39.5S18.2.9 39.5.9s38.6 17.3 38.6 38.6-17.3 38.6-38.6 38.6zm0-74.9c-20 0-36.3 16.3-36.3 36.3 0 20 16.3 36.3 36.3 36.3 20 0 36.3-16.3 36.3-36.3 0-20-16.3-36.3-36.3-36.3z"></path>
        <path d="M45.059 18.767v10h-2.9v-3.9l-2.4 3-2.4-3v3.9h-2.9v-10h1.4l3.9 4.9 4-4.9M31.059 42.167v2.3h-8.1v-10h7.8v2.4h-5v1.6h4.2v2.3h-4.2v1.4M57.559 34.467v10h-1.4l-5.1-4.9v4.9h-2.9v-10h1.3l5.2 5v-5M43.859 56.167c0 2.3-1.6 4.2-4.7 4.2s-4.7-1.8-4.7-4.2v-6h2.8v5.2c0 1.8.6 2.4 1.8 2.4 1.2 0 1.9-.6 1.9-2.4v-5.2h2.8v6h.1z"></path>
    </g>
</svg>