<?xml version="1.0" encoding="utf-8"?>
<!-- Generator: Adobe Illustrator 23.0.1, SVG Export Plug-In . SVG Version: 6.00 Build 0)  -->
<svg version="1.1" id="Ebene_1" xmlns="http://www.w3.org/2000/svg" xmlns:xlink="http://www.w3.org/1999/xlink" x="0px" y="0px"
	 width="900px" height="540px" viewBox="0 0 900 540" enable-background="new 0 0 900 540" xml:space="preserve">
<g>
	<path d="M366.2,80v148.6h148.6V80H366.2z M369.8,225.1v-43.7c6.6,0,13.3,0,19.9,0c0.2,0,0.2,0,0.2,0.2c0,3.5,0,7,0,10.4
		c0,0.5,0,1.1,0,1.6c0,0.6,0.1,1.1,0.2,1.7c0.2,0.6,0.5,1.1,1.1,1.4c0.6,0.3,1.2,0.4,1.9,0.4c1,0,1.9,0,2.9,0c0.1,0,0.1,0,0.1-0.1
		c0-0.8,0-1.6,0-2.4c0-0.1,0-0.1-0.1-0.1c-0.6,0-1.2,0-1.8,0c-0.2,0-0.5,0-0.7-0.1c-0.4-0.1-0.7-0.3-0.8-0.7
		c-0.1-0.3-0.1-0.5-0.1-0.8c0-3.8,0-7.5,0-11.3c0-0.2,0.1-0.2,0.2-0.2c1,0,2.1,0,3.1,0c0.1,0,0.2,0,0.2-0.2c0-0.8,0-1.5,0-2.3
		c0-0.1,0-0.2-0.2-0.2c-1,0-2,0-3,0c-0.3,0-0.3,0-0.3-0.3c0-1.7,0-3.4,0-5.1c0-0.1,0-0.2-0.2-0.2c-0.8,0-1.6,0-2.4,0
		c-0.2,0-0.2,0-0.2,0.2c0,1.7,0,3.4,0,5c0,0.3,0,0.3-0.3,0.3c-6.6,0-13.2,0-19.9,0V83.6h141.5v111.4c-6.7,0-13.4,0-20.1,0
		c-0.1,0-0.1,0-0.2,0c-0.3,0-0.6-0.1-0.7-0.5c-0.1-0.3-0.1-0.7-0.1-1c0-3.1,0-6.2,0-9.4c0-0.4,0-0.8,0-1.2c-0.1-0.7-0.2-1.4-0.5-2
		c-0.4-0.8-1.1-1.4-2-1.8c-0.9-0.4-2-0.6-3-0.6c-0.4,0-0.8-0.1-1.3,0c-0.5,0-0.9,0.1-1.4,0.1c-1,0.1-1.9,0.4-2.7,0.9
		c-0.9,0.5-1.6,1.2-2.1,2.2c-0.3,0.5-0.4,1-0.5,1.5c-0.1,0.4-0.2,0.9-0.2,1.3c0,0.1,0,0.1,0.1,0.1c0.9,0,1.7,0,2.6,0
		c0.1,0,0.1,0,0.1-0.1c0-0.3,0.1-0.6,0.1-0.9c0.2-0.8,0.7-1.5,1.5-1.9c0.7-0.4,1.4-0.5,2.2-0.5c0.4,0,0.8,0,1.2,0
		c0.5,0.1,1,0.1,1.5,0.3c0.7,0.3,1.2,0.8,1.4,1.5c0.2,0.5,0.3,1,0.2,1.6c-0.1,0.4-0.2,0.8-0.5,1.1c-0.5,0.4-1,0.6-1.6,0.7
		c-0.5,0.1-1.1,0.2-1.6,0.3c-0.5,0.1-1,0.2-1.5,0.3c-1,0.2-2,0.4-3,0.8c-0.9,0.3-1.6,0.8-2.2,1.5c-0.5,0.6-0.8,1.4-1,2.1
		c-0.1,0.6-0.1,1.3-0.1,1.9c0,0.6,0.2,1.2,0.4,1.8c0.2,0.5,0.5,1,0.9,1.4c0.4,0.4,0.9,0.7,1.5,0.9c0.7,0.3,1.5,0.4,2.2,0.5
		c0.5,0,1,0,1.5,0c0.5-0.1,1-0.1,1.4-0.3c0.6-0.2,1.2-0.4,1.8-0.8c0.6-0.4,1.1-0.8,1.6-1.3c0.1-0.1,0.2-0.3,0.4-0.4
		c0,0.5,0.1,1,0.2,1.5c0.3,0.8,1.1,1.4,2,1.4c7.2,0,14.4,0,21.5,0v27.5H369.8z M487.4,189.3c0,0.4,0,0.8,0,1.3c0,1.1-0.4,2-1.2,2.8
		c-0.8,0.8-1.7,1.2-2.8,1.4c-0.5,0.1-1.1,0.2-1.6,0.1c-0.8-0.1-1.6-0.2-2.2-0.7c-0.4-0.3-0.6-0.7-0.7-1.2c-0.2-0.8-0.1-1.6,0.3-2.3
		c0.2-0.4,0.6-0.7,1-1c0.7-0.4,1.4-0.6,2.2-0.8c0.7-0.1,1.5-0.2,2.2-0.3c0.7-0.1,1.4-0.2,2.1-0.5c0.2-0.1,0.4-0.2,0.6-0.3
		c0.1,0,0.1-0.1,0.2-0.1c0.1,0,0,0.1,0,0.2C487.4,188.3,487.4,188.8,487.4,189.3z"/>
	<path d="M405.4,132.8c11.5,9.2,25.5,14.4,34.9,27.3l0.4,0.1l4.2-4.9c11.4-12.7,27-16.6,37.9-30c5.9-7.6,11.5-15.6,12-25.1
		c-1.9,6.4-5.2,12.1-10,17.3c-12.7,14.9-32.2,16.9-44,33.2h-0.3c-7.5-10.5-19-15.3-29.3-21.1c-11.1-6.3-21.9-17.2-25.3-29.1
		C387.5,113.2,395.4,123.7,405.4,132.8z"/>
	<path d="M397.7,116.2c13.2,11.3,30.5,13.2,42.6,26.9c9-10.4,21.5-13.8,32.4-20.1c9.4-4.4,17.6-13.4,21.7-22.7h-0.1
		c-9.4,9.6-20.8,14.5-32.5,18.5c-7.7,2.8-15.1,7.5-20.4,14.6c-0.4,0.3-0.8,1.3-1.4,1.1c-4.9-6.8-11.7-12.1-19.1-14.8
		c-12.4-4.4-24.8-9.2-34.6-19.3l-0.1,0.1C389.2,106,392.3,111.6,397.7,116.2z"/>
	<path d="M407,178.3c-0.4,0-0.8,0.1-1.3,0.1c-0.6,0.1-1.1,0.3-1.7,0.5c-0.7,0.3-1.3,0.9-1.8,1.5c-0.3,0.3-0.5,0.7-0.8,1.1
		c-0.2,0.3-0.4,0.7-0.6,1c0,0,0,0.1-0.1,0.1c-0.1,0,0-0.1,0-0.1c0-0.1,0-0.1,0-0.2c0-1.1,0-2.3,0-3.4c0-0.1,0-0.2-0.2-0.2
		c-0.7,0-1.5,0-2.2,0c-0.2,0-0.2,0-0.2,0.2c0,3,0,6,0,8.9c0,3,0,6,0,9c0,0.2,0,0.2,0.2,0.2c0.8,0,1.6,0,2.4,0c0.2,0,0.2-0.1,0.2-0.2
		c0-2.9-0.1-5.7,0-8.6c0-0.4,0-0.8,0.1-1.2c0.1-0.6,0.2-1.2,0.3-1.7c0.2-0.7,0.5-1.4,1-2.1c0.5-0.6,1.1-1.1,1.9-1.4
		c0.9-0.4,1.8-0.5,2.7-0.5c0.1,0,0.2,0,0.2-0.2c0-1,0-1.9,0-2.9C407.2,178.3,407.2,178.3,407,178.3z"/>
	<path d="M411,171.7c-0.8,0-1.6,0-2.4,0c-0.1,0-0.2,0-0.2,0.2c0,1.1,0,2.2,0,3.3c0,0.1,0,0.2,0.2,0.2c0.8,0,1.6,0,2.4,0
		c0.1,0,0.2,0,0.2-0.2c0-0.6,0-1.1,0-1.7c0-0.6,0-1.1,0-1.7C411.2,171.8,411.2,171.7,411,171.7z"/>
	<path d="M473.2,181.4c-0.2-0.5-0.4-1-0.8-1.4c-0.6-0.6-1.3-1.1-2.1-1.3c-0.5-0.2-1.1-0.3-1.6-0.3c-0.6-0.1-1.2-0.1-1.8,0
		c-0.8,0.1-1.5,0.4-2.2,0.7c-0.7,0.4-1.4,1-1.9,1.7c-0.2,0.2-0.3,0.4-0.5,0.7c-0.1-0.3-0.2-0.6-0.4-0.9c-0.4-0.7-0.9-1.2-1.6-1.6
		c-0.6-0.3-1.1-0.5-1.8-0.6c-0.3,0-0.6-0.1-1-0.1c-0.4,0-0.7,0-1.1,0.1c-0.5,0.1-1.1,0.2-1.6,0.5c-0.6,0.3-1.1,0.6-1.5,1
		c-0.5,0.4-0.9,0.9-1.3,1.5c0,0.1-0.1,0.2-0.1,0.1c-0.1,0-0.1-0.1-0.1-0.2c0-0.8,0-1.5,0-2.3c0-0.1,0-0.2-0.2-0.2
		c-0.8,0-1.5,0-2.3,0c-0.1,0-0.2,0-0.2,0.2c0,6,0,12,0,18c0,0.2,0.1,0.2,0.2,0.2c0.8,0,1.6,0,2.4,0c0.2,0,0.2,0,0.2-0.2
		c0-3.8,0-7.6,0-11.4c0-0.2,0-0.3,0.1-0.5c0.2-0.8,0.5-1.6,1-2.3c0.4-0.5,0.9-0.9,1.4-1.2c0.9-0.5,1.9-0.6,2.9-0.4
		c0.9,0.2,1.5,0.6,1.9,1.4c0.3,0.7,0.5,1.4,0.5,2.1c0,4.1,0,8.3,0,12.4c0,0.2,0,0.2,0.2,0.2c0.8,0,1.6,0,2.4,0c0.2,0,0.2,0,0.2-0.2
		c0-3.7,0-7.4,0-11.1c0-0.6,0.1-1.1,0.2-1.7c0.2-0.7,0.5-1.3,1-1.9c0.8-0.8,1.8-1.2,2.9-1.3c0.5,0,1.1,0,1.6,0.2
		c0.7,0.2,1.3,0.6,1.6,1.3c0.4,0.8,0.5,1.6,0.5,2.4c0,4,0,8.1,0,12.1c0,0.2,0,0.2,0.2,0.2c0.8,0,1.6,0,2.4,0c0.1,0,0.2,0,0.2-0.2
		c0-4.3,0-8.6,0-12.9C473.5,183.2,473.5,182.3,473.2,181.4z"/>
	<path d="M447.2,185c-0.2-0.8-0.4-1.6-0.8-2.3c-0.5-1-1.1-1.9-2-2.7c-0.6-0.5-1.3-0.9-2-1.2c-0.5-0.2-1-0.3-1.5-0.4
		c-0.4-0.1-0.7-0.1-1.1-0.1c-0.4,0-0.8,0-1.1,0.1c-0.7,0.1-1.3,0.3-1.9,0.6c-1.1,0.5-2,1.2-2.8,2.1c-0.6,0.7-1.1,1.6-1.5,2.5
		c-0.5,1.2-0.7,2.5-0.8,3.7c0,0.6,0,1.2,0.1,1.8c0.1,0.6,0.1,1.1,0.2,1.7c0.2,0.8,0.4,1.6,0.8,2.3c0.5,1,1.1,1.9,1.9,2.6
		c0.4,0.3,0.8,0.6,1.2,0.9c1.1,0.6,2.2,0.9,3.4,1c1,0.1,2,0,3-0.3c1.2-0.3,2.3-1,3.2-1.9c0.4-0.4,0.8-0.9,1-1.5
		c0.4-0.8,0.7-1.6,0.8-2.4c0-0.1,0-0.1-0.1-0.1c-0.8,0-1.7,0-2.5,0c-0.1,0-0.1,0-0.2,0.1c0,0.3-0.2,0.6-0.3,0.9
		c-0.3,0.7-0.7,1.3-1.3,1.7c-0.7,0.6-1.6,0.8-2.5,0.9c-0.6,0-1.2,0-1.7-0.2c-1.5-0.3-2.6-1.2-3.3-2.6c-0.5-1-0.7-2.1-0.7-3.2
		c0-0.2,0-0.2,0.2-0.2c2.1,0,4.2,0,6.2,0c2.1,0,4.2,0,6.3,0c0.2,0,0.2,0,0.2-0.2c0-0.6,0-1.3-0.1-1.9
		C447.4,186.1,447.3,185.6,447.2,185z M444.5,186.2c-0.1,0-0.1,0-0.2,0h-4.7c-1.6,0-3.1,0-4.7,0c-0.2,0-0.2,0-0.2-0.2
		c0.1-0.5,0.2-1.1,0.4-1.6c0.3-0.7,0.6-1.3,1.1-1.9c0.7-0.7,1.5-1.2,2.5-1.4c0.6-0.1,1.2-0.1,1.8,0c0.8,0.1,1.5,0.5,2.2,1
		c0.5,0.4,0.9,0.9,1.2,1.5c0.3,0.6,0.6,1.2,0.7,1.9C444.5,185.6,444.5,185.9,444.5,186.2C444.5,186.1,444.5,186.2,444.5,186.2z"/>
	<path d="M411.2,178.9c0-0.1,0-0.2-0.2-0.2c-0.8,0-1.6,0-2.4,0c-0.2,0-0.2,0-0.2,0.2c0,6,0,12,0,18c0,0.2,0,0.2,0.2,0.2
		c0.8,0,1.6,0,2.4,0c0.2,0,0.2,0,0.2-0.2c0-3,0-6,0-9C411.2,185,411.2,181.9,411.2,178.9z"/>
	<path d="M429.4,179c0-0.2,0-0.2-0.2-0.2c-0.7,0-1.5,0-2.2,0c-0.2,0-0.2,0-0.2,0.2c0,0.7,0,1.4,0,2.2c0,0.1,0,0.1,0,0.2
		c0,0-0.1,0-0.1-0.1c-0.2-0.4-0.4-0.7-0.7-1c-0.6-0.7-1.4-1.3-2.4-1.6c-0.9-0.3-1.9-0.4-2.8-0.3c-0.6,0.1-1.2,0.2-1.8,0.4
		c-0.8,0.3-1.5,0.7-2.2,1.3c-0.7,0.6-1.2,1.3-1.7,2.1c-0.5,0.9-0.8,1.8-1,2.7c-0.3,1-0.3,2.1-0.4,3.2c0,0.2,0,0.4,0,0.6
		c0,0.6,0.1,1.2,0.2,1.8c0.1,0.7,0.3,1.4,0.6,2.1c0.5,1.2,1.1,2.2,2,3.1c0.6,0.5,1.2,0.9,1.8,1.2c0.9,0.4,1.9,0.6,2.9,0.6
		c0.4,0,0.8,0,1.2-0.1c0.8-0.1,1.6-0.4,2.3-0.9c0.9-0.6,1.5-1.3,2-2.3c0-0.1,0.1-0.1,0.1-0.1c0,0.5,0,1,0,1.5c0,0.6,0,1.2-0.1,1.8
		c-0.1,0.9-0.4,1.8-0.8,2.6c-0.4,0.7-0.9,1.3-1.5,1.7c-0.6,0.3-1.2,0.5-1.8,0.6c-0.7,0.1-1.3,0.1-2,0c-0.7-0.1-1.4-0.3-2-0.7
		c-0.8-0.5-1.2-1.2-1.3-2.1c0-0.1,0-0.1-0.1-0.1c-0.9,0-1.7,0-2.6,0c-0.1,0-0.1,0-0.1,0.1c0,0.2,0,0.3,0,0.5
		c0.1,0.7,0.3,1.3,0.6,1.9c0.5,0.9,1.2,1.5,2.1,2c0.8,0.4,1.6,0.7,2.5,0.8c0.5,0.1,1,0.1,1.5,0.2c0.8,0,1.6,0,2.3-0.1
		c0.8-0.1,1.5-0.3,2.2-0.7c0.8-0.4,1.4-0.9,2-1.5c0.4-0.5,0.7-1,1-1.5c0.2-0.5,0.4-1.1,0.6-1.6c0.2-0.9,0.3-1.8,0.4-2.8
		c0-0.4,0-0.7,0-1.1C429.4,189.9,429.4,184.4,429.4,179z M426.6,188.1c-0.1,1.2-0.3,2.5-0.8,3.6c-0.3,0.7-0.7,1.3-1.2,1.8
		c-0.6,0.6-1.4,1-2.2,1.2c-0.5,0.1-0.9,0.1-1.4,0.1c-0.9-0.1-1.7-0.4-2.4-1c-0.7-0.6-1.1-1.4-1.4-2.2c-0.3-0.7-0.4-1.4-0.5-2.2
		c-0.1-0.5-0.1-1.1-0.1-1.5c0-1.3,0.1-2.4,0.5-3.4c0.3-0.9,0.7-1.6,1.4-2.3c0.6-0.5,1.3-0.9,2.1-1.1c0.5-0.1,0.9-0.1,1.4-0.1
		c0.9,0,1.7,0.3,2.5,0.9c0.8,0.6,1.3,1.4,1.6,2.3c0.3,0.7,0.4,1.5,0.5,2.2C426.6,187,426.6,187.5,426.6,188.1z"/>
</g>
</svg>
