<svg xmlns="http://www.w3.org/2000/svg" width="1440" height="1440" viewBox="0 0 1440 1440" style="background:#fff">
  <defs>
    <linearGradient id="a" x1="50%" x2="50%" y1="0%" y2="100%">
      <stop stop-color="#FFD800" offset="0%"/>
      <stop stop-color="#CDA300" offset="100%"/>
    </linearGradient>
  </defs>
  <g fill="none" fill-rule="evenodd" transform="translate(355 312)">
    <polygon fill="#FFD800" points="57.632 608.144 .092 718.091 548.348 718.015 605.891 608.067"/>
    <polygon fill="#CDA400" points=".091 718.091 161.777 608.129 258.173 423.935 198.389 339.189"/>
    <polygon fill="#CDA400" points="375.52 .729 317.977 110.68 630.354 561.321 687.894 451.373"/>
    <polygon fill="#CDA400" points="235.426 268.415 547.802 719.059 605.34 609.111 292.966 158.468"/>
    <polygon fill="#FFD800" points="235.536 268.207 687.896 451.374 568.99 279.84 293.076 158.257"/>
    <polygon fill="#9D7E11" points="517.974 399.196 687.895 451.374 501.951 376.079"/>
    <polyline fill="#9D7E11" points="421.426 343.605 235.48 268.313 445.073 377.906"/>
    <polygon fill="#9D7E11" points="309.416 608.108 147.731 718.067 304.899 636.309 319.659 608.108"/>
    <polygon fill="#CDA400" points="147.731 718.067 309.417 608.109 343.344 543.282 285.61 454.609"/>
    <polygon fill="#9D7E11" points="161.776 608.129 .091 718.09 157.261 636.327 172.019 608.126"/>
    <g transform="translate(20.916 112.972)">
      <polygon fill="#1D1C1B" points="4.629 15.821 .002 42.126 19.918 42.126 20.896 36.488 7.377 36.488 11.035 15.821"/>
      <polygon fill="#1D1C1B" points="33.441 25.967 46.032 25.967 45.018 31.605 32.449 31.605 31.656 36.116 45.28 36.116 44.224 42.126 24.198 42.126 28.829 15.822 48.86 15.822 47.804 21.838 34.17 21.838"/>
      <g fill="#1D1C1B" transform="translate(12.745 50.79)">
        <path d="M12.8055788,8.74735893 C12.0768504,12.9127055 9.46172971,15.3382719 5.49984498,15.3382719 C1.51028701,15.3382719 -0.168555891,12.9127055 0.555560411,8.77037187 L2.00840522,0.522525334 L5.53674262,0.522525334 L4.18997854,8.21345815 C3.71030914,10.882962 4.00087811,12.1670854 6.05792187,12.1670854 C8.15647548,12.1670854 8.90365282,10.882962 9.37871,8.21345815 L10.7300863,0.522525334 L14.2584237,0.522525334 L12.8055788,8.74735893 Z"/>
        <polygon points="20.604 15.835 16.14 .523 19.982 .523 21.933 8.319 26.623 .523 30.466 .523"/>
      </g>
      <path fill="url(#a)" d="M93.3518708,0.481179919 L87.6973066,8.20433081 C87.526655,8.42985786 87.4021254,8.61856417 87.3006569,8.77044973 L87.3006569,8.77044973 L85.2482254,11.8449818 C83.9245223,13.8148915 82.6100436,15.7894039 81.272504,17.7547111 L81.272504,17.7547111 C74.90766,27.0887695 69.123954,36.8784846 63.4647776,46.4518778 L63.4647776,46.4518778 C60.5498636,51.3858574 57.5196444,56.7662885 55.135134,62.6115815 L55.135134,62.6115815 C51.8696923,70.6062853 51.0256587,78.8219137 52.6307063,87.0283368 L52.6307063,87.0283368 C54.2495905,95.3130041 58.1930264,102.414805 64.3503211,108.168046 L64.3503211,108.168046 C72.0711535,115.366501 81.5400119,119.246487 92.4986128,119.688336 L92.4986128,119.688336 C92.9275479,119.702144 93.356483,119.711349 93.7854181,119.711349 L93.7854181,119.711349 C97.816486,119.711349 102.004369,118.965729 106.598126,117.433065 L106.598126,117.433065 C124.078386,111.592375 134.764866,96.4452419 134.75103,79.2269419 L134.75103,79.2269419 L134.75103,79.1625055 C134.741805,75.4896365 134.248299,71.7201129 133.229002,67.9275763 L133.229002,67.9275763 C131.53171,61.6128189 128.579898,56.0206685 126.204612,51.8599245 L126.204612,51.8599245 C120.28254,41.4948853 112.331097,27.9172362 103.28195,14.7446153 L103.28195,14.7446153 C102.308774,13.3224141 101.354048,11.8910077 100.37626,10.4319858 L100.37626,10.4319858 L93.3518708,0.481179919 Z M93.0382408,106.290188 C85.285123,105.977211 78.897218,103.385952 73.5286105,98.3691257 L73.5286105,98.3691257 C69.4191351,94.5397685 66.9008709,89.987804 65.8170026,84.46009 L65.8170026,84.46009 C64.7054609,78.7850929 65.2819867,73.2941996 67.5788651,67.6652285 L67.5788651,67.6652285 C69.6405211,62.6207867 72.3801713,57.7604486 75.1105971,53.1532531 L75.1105971,53.1532531 C80.5945097,43.8652206 86.2582984,34.2688144 92.3786954,25.2891556 L92.3786954,25.2891556 C92.6877132,24.8427041 92.996731,24.3870475 93.3011366,23.9359933 L93.3011366,23.9359933 C101.621556,36.2019034 108.987248,48.789995 114.535732,58.501466 L114.535732,58.501466 C116.509756,61.9580133 118.954225,66.5560036 120.250255,71.4025339 L120.250255,71.4025339 C124.161405,85.9329197 116.625061,99.947815 102.336448,104.720704 L102.336448,104.720704 C99.140189,105.788505 96.3405802,106.308598 93.7854181,106.308598 L93.7854181,106.308598 L93.0382408,106.290188 Z"/>
    </g>
    <polygon fill="#090909" points="717.056 669.887 717.056 755.315 645.571 755.315 645.571 768.914 730.658 768.914 730.658 669.887"/>
  </g>
</svg>
