<svg version="1.1" id="Ebene_1" xmlns="http://www.w3.org/2000/svg" x="0" y="0" viewBox="0 0 300 300" xml:space="preserve"><style>.st0{fill:#fff56b}</style><path class="st0" d="M226.3 150L300 76.3 223.7 0l-76.4 76.4V150z"/><g transform="rotate(180 75 150)"><path fill="#f1e665" d="M76.3 150L150 76.3 73.7 0 0 73.7V150z"/><linearGradient id="SVGID_1_" gradientUnits="userSpaceOnUse" x1="490.891" y1="-147.991" x2="491.024" y2="-148.491" gradientTransform="matrix(-150 0 0 150 73689 22347)"><stop offset="0" stop-color="#e2d65d"/><stop offset="1" stop-color="#fff56b"/></linearGradient><path fill="url(#SVGID_1_)" d="M76.3 150L150 76.3 73.7 0 0 73.7V150z"/></g><g transform="matrix(1 0 0 -1 150 300)"><path class="st0" d="M76.3 150L150 76.3 73.7 0 0 73.7V150z"/><linearGradient id="SVGID_2_" gradientUnits="userSpaceOnUse" x1="-486.526" y1="-147.958" x2="-486.297" y2="-148.377" gradientTransform="matrix(150 0 0 150 73011 22347)"><stop offset="0" stop-color="#ede26b"/><stop offset="1" stop-color="#fff56b"/></linearGradient><path fill="url(#SVGID_2_)" d="M76.3 150L150 76.3 73.7 0 0 73.7V150z"/></g><path fill="#fff99a" d="M73.7 150L0 76.3 76.3 0 150 73.7V150z"/></svg>